<mxfile host="Electron" agent="Mozilla/5.0 (Windows NT 10.0; Win64; x64) AppleWebKit/537.36 (KHTML, like Gecko) draw.io/24.7.17 Chrome/128.0.6613.36 Electron/32.0.1 Safari/537.36" version="24.7.17">
  <diagram name="페이지-1" id="bL1nmZd2nlfhnYmSMXlE">
    <mxGraphModel dx="1789" dy="1518" grid="1" gridSize="10" guides="1" tooltips="1" connect="1" arrows="1" fold="1" page="1" pageScale="1" pageWidth="827" pageHeight="1169" math="0" shadow="0">
      <root>
        <mxCell id="0" />
        <mxCell id="1" parent="0" />
        <mxCell id="hsLVqGyKf4GTfWMnWfSy-16" value="" style="edgeStyle=orthogonalEdgeStyle;rounded=0;orthogonalLoop=1;jettySize=auto;html=1;" edge="1" parent="1" source="hsLVqGyKf4GTfWMnWfSy-3" target="hsLVqGyKf4GTfWMnWfSy-7">
          <mxGeometry relative="1" as="geometry" />
        </mxCell>
        <mxCell id="hsLVqGyKf4GTfWMnWfSy-3" value="시작" style="rounded=1;whiteSpace=wrap;html=1;arcSize=50;" vertex="1" parent="1">
          <mxGeometry x="185" y="70" width="120" height="60" as="geometry" />
        </mxCell>
        <mxCell id="hsLVqGyKf4GTfWMnWfSy-4" value="끝" style="rounded=1;whiteSpace=wrap;html=1;arcSize=50;" vertex="1" parent="1">
          <mxGeometry x="191" y="826" width="120" height="60" as="geometry" />
        </mxCell>
        <mxCell id="hsLVqGyKf4GTfWMnWfSy-5" value="frame" style="shape=umlFrame;whiteSpace=wrap;html=1;pointerEvents=0;" vertex="1" parent="1">
          <mxGeometry x="10" y="50" width="530" height="900" as="geometry" />
        </mxCell>
        <mxCell id="hsLVqGyKf4GTfWMnWfSy-17" value="" style="edgeStyle=orthogonalEdgeStyle;rounded=0;orthogonalLoop=1;jettySize=auto;html=1;" edge="1" parent="1" source="hsLVqGyKf4GTfWMnWfSy-7" target="hsLVqGyKf4GTfWMnWfSy-8">
          <mxGeometry relative="1" as="geometry" />
        </mxCell>
        <mxCell id="hsLVqGyKf4GTfWMnWfSy-7" value="나이(age)입력" style="shape=parallelogram;html=1;strokeWidth=2;perimeter=parallelogramPerimeter;whiteSpace=wrap;rounded=1;arcSize=12;size=0.23;" vertex="1" parent="1">
          <mxGeometry x="180" y="170" width="132.5" height="60" as="geometry" />
        </mxCell>
        <mxCell id="hsLVqGyKf4GTfWMnWfSy-15" value="" style="edgeStyle=orthogonalEdgeStyle;rounded=0;orthogonalLoop=1;jettySize=auto;html=1;" edge="1" parent="1" source="hsLVqGyKf4GTfWMnWfSy-8" target="hsLVqGyKf4GTfWMnWfSy-10">
          <mxGeometry relative="1" as="geometry" />
        </mxCell>
        <mxCell id="hsLVqGyKf4GTfWMnWfSy-18" value="" style="edgeStyle=orthogonalEdgeStyle;rounded=0;orthogonalLoop=1;jettySize=auto;html=1;" edge="1" parent="1" source="hsLVqGyKf4GTfWMnWfSy-8">
          <mxGeometry relative="1" as="geometry">
            <mxPoint x="245.05882352941182" y="395" as="targetPoint" />
          </mxGeometry>
        </mxCell>
        <mxCell id="hsLVqGyKf4GTfWMnWfSy-8" value="age가 &amp;gt;=8" style="strokeWidth=2;html=1;shape=mxgraph.flowchart.decision;whiteSpace=wrap;" vertex="1" parent="1">
          <mxGeometry x="195" y="270" width="100" height="100" as="geometry" />
        </mxCell>
        <mxCell id="hsLVqGyKf4GTfWMnWfSy-21" style="edgeStyle=orthogonalEdgeStyle;rounded=0;orthogonalLoop=1;jettySize=auto;html=1;entryX=1;entryY=0.5;entryDx=0;entryDy=0;" edge="1" parent="1" source="hsLVqGyKf4GTfWMnWfSy-10">
          <mxGeometry relative="1" as="geometry">
            <mxPoint x="302.5" y="425" as="targetPoint" />
            <Array as="points">
              <mxPoint x="413" y="425" />
            </Array>
          </mxGeometry>
        </mxCell>
        <mxCell id="hsLVqGyKf4GTfWMnWfSy-10" value="학교에 다닙니다." style="shape=document;whiteSpace=wrap;html=1;boundedLbl=1;" vertex="1" parent="1">
          <mxGeometry x="363" y="290" width="100" height="60" as="geometry" />
        </mxCell>
        <mxCell id="hsLVqGyKf4GTfWMnWfSy-19" value="" style="edgeStyle=orthogonalEdgeStyle;rounded=0;orthogonalLoop=1;jettySize=auto;html=1;" edge="1" parent="1" target="hsLVqGyKf4GTfWMnWfSy-12">
          <mxGeometry relative="1" as="geometry">
            <mxPoint x="245.05882352941182" y="455" as="sourcePoint" />
          </mxGeometry>
        </mxCell>
        <mxCell id="hsLVqGyKf4GTfWMnWfSy-20" value="" style="edgeStyle=orthogonalEdgeStyle;rounded=0;orthogonalLoop=1;jettySize=auto;html=1;" edge="1" parent="1" source="hsLVqGyKf4GTfWMnWfSy-12" target="hsLVqGyKf4GTfWMnWfSy-13">
          <mxGeometry relative="1" as="geometry" />
        </mxCell>
        <mxCell id="hsLVqGyKf4GTfWMnWfSy-26" value="" style="edgeStyle=orthogonalEdgeStyle;rounded=0;orthogonalLoop=1;jettySize=auto;html=1;" edge="1" parent="1" source="hsLVqGyKf4GTfWMnWfSy-12" target="hsLVqGyKf4GTfWMnWfSy-24">
          <mxGeometry relative="1" as="geometry" />
        </mxCell>
        <mxCell id="hsLVqGyKf4GTfWMnWfSy-12" value="age가 &amp;lt; 8" style="strokeWidth=2;html=1;shape=mxgraph.flowchart.decision;whiteSpace=wrap;" vertex="1" parent="1">
          <mxGeometry x="195" y="480" width="100" height="100" as="geometry" />
        </mxCell>
        <mxCell id="hsLVqGyKf4GTfWMnWfSy-22" style="edgeStyle=orthogonalEdgeStyle;rounded=0;orthogonalLoop=1;jettySize=auto;html=1;entryX=1;entryY=0.5;entryDx=0;entryDy=0;" edge="1" parent="1" source="hsLVqGyKf4GTfWMnWfSy-13">
          <mxGeometry relative="1" as="geometry">
            <mxPoint x="302.5" y="640" as="targetPoint" />
            <Array as="points">
              <mxPoint x="413" y="640" />
            </Array>
          </mxGeometry>
        </mxCell>
        <mxCell id="hsLVqGyKf4GTfWMnWfSy-13" value="학교에 다니지 않습니다." style="shape=document;whiteSpace=wrap;html=1;boundedLbl=1;" vertex="1" parent="1">
          <mxGeometry x="363" y="500" width="100" height="60" as="geometry" />
        </mxCell>
        <mxCell id="hsLVqGyKf4GTfWMnWfSy-28" value="" style="edgeStyle=orthogonalEdgeStyle;rounded=0;orthogonalLoop=1;jettySize=auto;html=1;" edge="1" parent="1" source="hsLVqGyKf4GTfWMnWfSy-23" target="hsLVqGyKf4GTfWMnWfSy-4">
          <mxGeometry relative="1" as="geometry" />
        </mxCell>
        <mxCell id="hsLVqGyKf4GTfWMnWfSy-23" value="프로그램 종료" style="shape=parallelogram;html=1;strokeWidth=2;perimeter=parallelogramPerimeter;whiteSpace=wrap;rounded=1;arcSize=12;size=0.23;" vertex="1" parent="1">
          <mxGeometry x="180" y="720" width="141.5" height="60" as="geometry" />
        </mxCell>
        <mxCell id="hsLVqGyKf4GTfWMnWfSy-27" value="" style="edgeStyle=orthogonalEdgeStyle;rounded=0;orthogonalLoop=1;jettySize=auto;html=1;" edge="1" parent="1" source="hsLVqGyKf4GTfWMnWfSy-24" target="hsLVqGyKf4GTfWMnWfSy-23">
          <mxGeometry relative="1" as="geometry" />
        </mxCell>
        <mxCell id="hsLVqGyKf4GTfWMnWfSy-24" value="2. IF 코드블럭&lt;br&gt;&amp;nbsp;종료" style="shape=parallelogram;html=1;strokeWidth=2;perimeter=parallelogramPerimeter;whiteSpace=wrap;rounded=1;arcSize=12;size=0.23;" vertex="1" parent="1">
          <mxGeometry x="180" y="610" width="141.5" height="60" as="geometry" />
        </mxCell>
        <mxCell id="hsLVqGyKf4GTfWMnWfSy-25" value="1. IF&amp;nbsp; 코드블럭&lt;br&gt;&amp;nbsp;종료" style="shape=parallelogram;html=1;strokeWidth=2;perimeter=parallelogramPerimeter;whiteSpace=wrap;rounded=1;arcSize=12;size=0.23;" vertex="1" parent="1">
          <mxGeometry x="180" y="400" width="132.5" height="60" as="geometry" />
        </mxCell>
        <mxCell id="hsLVqGyKf4GTfWMnWfSy-29" value="" style="edgeStyle=orthogonalEdgeStyle;rounded=0;orthogonalLoop=1;jettySize=auto;html=1;" edge="1" source="hsLVqGyKf4GTfWMnWfSy-30" target="hsLVqGyKf4GTfWMnWfSy-34" parent="1">
          <mxGeometry relative="1" as="geometry" />
        </mxCell>
        <mxCell id="hsLVqGyKf4GTfWMnWfSy-30" value="시작" style="rounded=1;whiteSpace=wrap;html=1;arcSize=50;" vertex="1" parent="1">
          <mxGeometry x="755" y="70" width="120" height="60" as="geometry" />
        </mxCell>
        <mxCell id="hsLVqGyKf4GTfWMnWfSy-31" value="끝" style="rounded=1;whiteSpace=wrap;html=1;arcSize=50;" vertex="1" parent="1">
          <mxGeometry x="756.5" y="566" width="120" height="60" as="geometry" />
        </mxCell>
        <mxCell id="hsLVqGyKf4GTfWMnWfSy-32" value="frame" style="shape=umlFrame;whiteSpace=wrap;html=1;pointerEvents=0;" vertex="1" parent="1">
          <mxGeometry x="580" y="50" width="530" height="900" as="geometry" />
        </mxCell>
        <mxCell id="hsLVqGyKf4GTfWMnWfSy-33" value="" style="edgeStyle=orthogonalEdgeStyle;rounded=0;orthogonalLoop=1;jettySize=auto;html=1;" edge="1" source="hsLVqGyKf4GTfWMnWfSy-34" target="hsLVqGyKf4GTfWMnWfSy-37" parent="1">
          <mxGeometry relative="1" as="geometry" />
        </mxCell>
        <mxCell id="hsLVqGyKf4GTfWMnWfSy-34" value="나이(age)입력" style="shape=parallelogram;html=1;strokeWidth=2;perimeter=parallelogramPerimeter;whiteSpace=wrap;rounded=1;arcSize=12;size=0.23;" vertex="1" parent="1">
          <mxGeometry x="750" y="170" width="132.5" height="60" as="geometry" />
        </mxCell>
        <mxCell id="hsLVqGyKf4GTfWMnWfSy-35" value="" style="edgeStyle=orthogonalEdgeStyle;rounded=0;orthogonalLoop=1;jettySize=auto;html=1;" edge="1" source="hsLVqGyKf4GTfWMnWfSy-37" target="hsLVqGyKf4GTfWMnWfSy-39" parent="1">
          <mxGeometry relative="1" as="geometry" />
        </mxCell>
        <mxCell id="hsLVqGyKf4GTfWMnWfSy-36" value="" style="edgeStyle=orthogonalEdgeStyle;rounded=0;orthogonalLoop=1;jettySize=auto;html=1;entryX=0.5;entryY=0;entryDx=0;entryDy=0;" edge="1" source="hsLVqGyKf4GTfWMnWfSy-37" parent="1" target="hsLVqGyKf4GTfWMnWfSy-47">
          <mxGeometry relative="1" as="geometry">
            <mxPoint x="814.0588235294118" y="395" as="targetPoint" />
          </mxGeometry>
        </mxCell>
        <mxCell id="hsLVqGyKf4GTfWMnWfSy-55" value="" style="edgeStyle=orthogonalEdgeStyle;rounded=0;orthogonalLoop=1;jettySize=auto;html=1;" edge="1" parent="1" source="hsLVqGyKf4GTfWMnWfSy-37" target="hsLVqGyKf4GTfWMnWfSy-54">
          <mxGeometry relative="1" as="geometry" />
        </mxCell>
        <mxCell id="hsLVqGyKf4GTfWMnWfSy-37" value="age가 &amp;gt;=8" style="strokeWidth=2;html=1;shape=mxgraph.flowchart.decision;whiteSpace=wrap;" vertex="1" parent="1">
          <mxGeometry x="769" y="270" width="95" height="100" as="geometry" />
        </mxCell>
        <mxCell id="hsLVqGyKf4GTfWMnWfSy-56" style="edgeStyle=orthogonalEdgeStyle;rounded=0;orthogonalLoop=1;jettySize=auto;html=1;entryX=1;entryY=0.75;entryDx=0;entryDy=0;" edge="1" parent="1" source="hsLVqGyKf4GTfWMnWfSy-39" target="hsLVqGyKf4GTfWMnWfSy-47">
          <mxGeometry relative="1" as="geometry">
            <Array as="points">
              <mxPoint x="982" y="500" />
            </Array>
          </mxGeometry>
        </mxCell>
        <mxCell id="hsLVqGyKf4GTfWMnWfSy-39" value="학고에&lt;br&gt;다닙니다." style="shape=document;whiteSpace=wrap;html=1;boundedLbl=1;" vertex="1" parent="1">
          <mxGeometry x="932" y="290" width="100" height="60" as="geometry" />
        </mxCell>
        <mxCell id="hsLVqGyKf4GTfWMnWfSy-46" value="" style="edgeStyle=orthogonalEdgeStyle;rounded=0;orthogonalLoop=1;jettySize=auto;html=1;" edge="1" source="hsLVqGyKf4GTfWMnWfSy-47" target="hsLVqGyKf4GTfWMnWfSy-31" parent="1">
          <mxGeometry relative="1" as="geometry" />
        </mxCell>
        <mxCell id="hsLVqGyKf4GTfWMnWfSy-47" value="프로그램 종료" style="shape=parallelogram;html=1;strokeWidth=2;perimeter=parallelogramPerimeter;whiteSpace=wrap;rounded=1;arcSize=12;size=0.23;" vertex="1" parent="1">
          <mxGeometry x="745.5" y="460" width="141.5" height="60" as="geometry" />
        </mxCell>
        <mxCell id="hsLVqGyKf4GTfWMnWfSy-51" value="NO" style="text;html=1;align=center;verticalAlign=middle;resizable=0;points=[];autosize=1;strokeColor=none;fillColor=none;" vertex="1" parent="1">
          <mxGeometry x="702" y="290" width="40" height="30" as="geometry" />
        </mxCell>
        <mxCell id="hsLVqGyKf4GTfWMnWfSy-52" value="YES" style="text;html=1;align=center;verticalAlign=middle;resizable=0;points=[];autosize=1;strokeColor=none;fillColor=none;" vertex="1" parent="1">
          <mxGeometry x="872.5" y="290" width="50" height="30" as="geometry" />
        </mxCell>
        <mxCell id="hsLVqGyKf4GTfWMnWfSy-57" style="edgeStyle=orthogonalEdgeStyle;rounded=0;orthogonalLoop=1;jettySize=auto;html=1;entryX=0;entryY=0.75;entryDx=0;entryDy=0;" edge="1" parent="1" source="hsLVqGyKf4GTfWMnWfSy-54" target="hsLVqGyKf4GTfWMnWfSy-47">
          <mxGeometry relative="1" as="geometry">
            <Array as="points">
              <mxPoint x="659" y="500" />
              <mxPoint x="755" y="500" />
            </Array>
          </mxGeometry>
        </mxCell>
        <mxCell id="hsLVqGyKf4GTfWMnWfSy-60" value="" style="edgeStyle=orthogonalEdgeStyle;rounded=0;orthogonalLoop=1;jettySize=auto;html=1;" edge="1" parent="1" source="hsLVqGyKf4GTfWMnWfSy-54" target="hsLVqGyKf4GTfWMnWfSy-37">
          <mxGeometry relative="1" as="geometry" />
        </mxCell>
        <mxCell id="hsLVqGyKf4GTfWMnWfSy-54" value="학고에 다니지&lt;div&gt;않습니다.&lt;/div&gt;" style="shape=document;whiteSpace=wrap;html=1;boundedLbl=1;" vertex="1" parent="1">
          <mxGeometry x="609" y="290" width="100" height="60" as="geometry" />
        </mxCell>
        <mxCell id="hsLVqGyKf4GTfWMnWfSy-58" value="YES" style="text;html=1;align=center;verticalAlign=middle;resizable=0;points=[];autosize=1;strokeColor=none;fillColor=none;" vertex="1" parent="1">
          <mxGeometry x="300" y="290" width="50" height="30" as="geometry" />
        </mxCell>
        <mxCell id="hsLVqGyKf4GTfWMnWfSy-59" value="YES" style="text;html=1;align=center;verticalAlign=middle;resizable=0;points=[];autosize=1;strokeColor=none;fillColor=none;" vertex="1" parent="1">
          <mxGeometry x="300" y="500" width="50" height="30" as="geometry" />
        </mxCell>
        <mxCell id="hsLVqGyKf4GTfWMnWfSy-62" value="단순 IF&amp;nbsp;" style="text;html=1;align=center;verticalAlign=middle;resizable=0;points=[];autosize=1;strokeColor=none;fillColor=none;" vertex="1" parent="1">
          <mxGeometry x="10" y="98" width="60" height="30" as="geometry" />
        </mxCell>
        <mxCell id="hsLVqGyKf4GTfWMnWfSy-63" value="IF-ELSE" style="text;html=1;align=center;verticalAlign=middle;resizable=0;points=[];autosize=1;strokeColor=none;fillColor=none;" vertex="1" parent="1">
          <mxGeometry x="605" y="98" width="70" height="30" as="geometry" />
        </mxCell>
        <mxCell id="hsLVqGyKf4GTfWMnWfSy-89" value="" style="edgeStyle=orthogonalEdgeStyle;rounded=0;orthogonalLoop=1;jettySize=auto;html=1;" edge="1" source="hsLVqGyKf4GTfWMnWfSy-90" target="hsLVqGyKf4GTfWMnWfSy-94" parent="1">
          <mxGeometry relative="1" as="geometry" />
        </mxCell>
        <mxCell id="hsLVqGyKf4GTfWMnWfSy-90" value="시작" style="rounded=1;whiteSpace=wrap;html=1;arcSize=50;" vertex="1" parent="1">
          <mxGeometry x="1695" y="145" width="120" height="80" as="geometry" />
        </mxCell>
        <mxCell id="hsLVqGyKf4GTfWMnWfSy-91" value="끝" style="rounded=1;whiteSpace=wrap;html=1;arcSize=50;" vertex="1" parent="1">
          <mxGeometry x="1695.5" y="821" width="120" height="80" as="geometry" />
        </mxCell>
        <mxCell id="hsLVqGyKf4GTfWMnWfSy-92" value="frame" style="shape=umlFrame;whiteSpace=wrap;html=1;pointerEvents=0;" vertex="1" parent="1">
          <mxGeometry x="1520" y="125" width="530" height="920" as="geometry" />
        </mxCell>
        <mxCell id="hsLVqGyKf4GTfWMnWfSy-93" value="" style="edgeStyle=orthogonalEdgeStyle;rounded=0;orthogonalLoop=1;jettySize=auto;html=1;" edge="1" source="hsLVqGyKf4GTfWMnWfSy-94" target="hsLVqGyKf4GTfWMnWfSy-98" parent="1">
          <mxGeometry relative="1" as="geometry" />
        </mxCell>
        <mxCell id="hsLVqGyKf4GTfWMnWfSy-94" value="정수 값 num 입력" style="shape=parallelogram;html=1;strokeWidth=2;perimeter=parallelogramPerimeter;whiteSpace=wrap;rounded=1;arcSize=12;size=0.23;" vertex="1" parent="1">
          <mxGeometry x="1690" y="245" width="132.5" height="80" as="geometry" />
        </mxCell>
        <mxCell id="hsLVqGyKf4GTfWMnWfSy-95" value="" style="edgeStyle=orthogonalEdgeStyle;rounded=0;orthogonalLoop=1;jettySize=auto;html=1;" edge="1" source="hsLVqGyKf4GTfWMnWfSy-98" target="hsLVqGyKf4GTfWMnWfSy-100" parent="1">
          <mxGeometry relative="1" as="geometry" />
        </mxCell>
        <mxCell id="hsLVqGyKf4GTfWMnWfSy-96" value="" style="edgeStyle=orthogonalEdgeStyle;rounded=0;orthogonalLoop=1;jettySize=auto;html=1;entryX=0.5;entryY=0;entryDx=0;entryDy=0;" edge="1" source="hsLVqGyKf4GTfWMnWfSy-98" target="hsLVqGyKf4GTfWMnWfSy-102" parent="1">
          <mxGeometry relative="1" as="geometry">
            <mxPoint x="1754.0588235294117" y="470" as="targetPoint" />
          </mxGeometry>
        </mxCell>
        <mxCell id="hsLVqGyKf4GTfWMnWfSy-97" value="" style="edgeStyle=orthogonalEdgeStyle;rounded=0;orthogonalLoop=1;jettySize=auto;html=1;" edge="1" source="hsLVqGyKf4GTfWMnWfSy-98" target="hsLVqGyKf4GTfWMnWfSy-107" parent="1">
          <mxGeometry relative="1" as="geometry" />
        </mxCell>
        <mxCell id="hsLVqGyKf4GTfWMnWfSy-98" value="입력num이 3의&lt;br&gt;배수인가?" style="strokeWidth=2;html=1;shape=mxgraph.flowchart.decision;whiteSpace=wrap;" vertex="1" parent="1">
          <mxGeometry x="1703" y="345" width="104" height="120" as="geometry" />
        </mxCell>
        <mxCell id="hsLVqGyKf4GTfWMnWfSy-99" style="edgeStyle=orthogonalEdgeStyle;rounded=0;orthogonalLoop=1;jettySize=auto;html=1;entryX=1;entryY=0.75;entryDx=0;entryDy=0;exitX=0.536;exitY=0.838;exitDx=0;exitDy=0;exitPerimeter=0;" edge="1" source="hsLVqGyKf4GTfWMnWfSy-111" target="hsLVqGyKf4GTfWMnWfSy-102" parent="1">
          <mxGeometry relative="1" as="geometry">
            <mxPoint x="1922" y="670" as="sourcePoint" />
            <Array as="points">
              <mxPoint x="1922" y="677" />
              <mxPoint x="1922" y="769" />
            </Array>
          </mxGeometry>
        </mxCell>
        <mxCell id="hsLVqGyKf4GTfWMnWfSy-112" value="" style="edgeStyle=orthogonalEdgeStyle;rounded=0;orthogonalLoop=1;jettySize=auto;html=1;" edge="1" parent="1" source="hsLVqGyKf4GTfWMnWfSy-100" target="hsLVqGyKf4GTfWMnWfSy-110">
          <mxGeometry relative="1" as="geometry" />
        </mxCell>
        <mxCell id="hsLVqGyKf4GTfWMnWfSy-100" value="입력num값은 3의&lt;br&gt;배수입니다." style="shape=document;whiteSpace=wrap;html=1;boundedLbl=1;" vertex="1" parent="1">
          <mxGeometry x="1872" y="365" width="100" height="80" as="geometry" />
        </mxCell>
        <mxCell id="hsLVqGyKf4GTfWMnWfSy-101" value="" style="edgeStyle=orthogonalEdgeStyle;rounded=0;orthogonalLoop=1;jettySize=auto;html=1;" edge="1" source="hsLVqGyKf4GTfWMnWfSy-102" target="hsLVqGyKf4GTfWMnWfSy-91" parent="1">
          <mxGeometry relative="1" as="geometry" />
        </mxCell>
        <mxCell id="hsLVqGyKf4GTfWMnWfSy-102" value="프로그램 종료" style="shape=parallelogram;html=1;strokeWidth=2;perimeter=parallelogramPerimeter;whiteSpace=wrap;rounded=1;arcSize=12;size=0.23;" vertex="1" parent="1">
          <mxGeometry x="1684.5" y="715" width="141.5" height="80" as="geometry" />
        </mxCell>
        <mxCell id="hsLVqGyKf4GTfWMnWfSy-103" value="NO" style="text;html=1;align=center;verticalAlign=middle;resizable=0;points=[];autosize=1;strokeColor=none;fillColor=none;" vertex="1" parent="1">
          <mxGeometry x="1642" y="365" width="40" height="30" as="geometry" />
        </mxCell>
        <mxCell id="hsLVqGyKf4GTfWMnWfSy-104" value="YES" style="text;html=1;align=center;verticalAlign=middle;resizable=0;points=[];autosize=1;strokeColor=none;fillColor=none;" vertex="1" parent="1">
          <mxGeometry x="1812.5" y="365" width="50" height="30" as="geometry" />
        </mxCell>
        <mxCell id="hsLVqGyKf4GTfWMnWfSy-105" style="edgeStyle=orthogonalEdgeStyle;rounded=0;orthogonalLoop=1;jettySize=auto;html=1;entryX=0;entryY=0.75;entryDx=0;entryDy=0;" edge="1" source="hsLVqGyKf4GTfWMnWfSy-107" target="hsLVqGyKf4GTfWMnWfSy-102" parent="1">
          <mxGeometry relative="1" as="geometry">
            <Array as="points">
              <mxPoint x="1599" y="772" />
            </Array>
          </mxGeometry>
        </mxCell>
        <mxCell id="hsLVqGyKf4GTfWMnWfSy-107" value="입력num값은 3의&lt;br&gt;배수가 아닙니다." style="shape=document;whiteSpace=wrap;html=1;boundedLbl=1;" vertex="1" parent="1">
          <mxGeometry x="1549" y="365" width="100" height="80" as="geometry" />
        </mxCell>
        <mxCell id="hsLVqGyKf4GTfWMnWfSy-113" value="" style="edgeStyle=orthogonalEdgeStyle;rounded=0;orthogonalLoop=1;jettySize=auto;html=1;" edge="1" parent="1" source="hsLVqGyKf4GTfWMnWfSy-110" target="hsLVqGyKf4GTfWMnWfSy-111">
          <mxGeometry relative="1" as="geometry" />
        </mxCell>
        <mxCell id="hsLVqGyKf4GTfWMnWfSy-110" value="입력num이 3의&lt;br&gt;배수이면서 5의&lt;div&gt;배수인가?&lt;/div&gt;" style="strokeWidth=2;html=1;shape=mxgraph.flowchart.decision;whiteSpace=wrap;" vertex="1" parent="1">
          <mxGeometry x="1870" y="469" width="104" height="120" as="geometry" />
        </mxCell>
        <mxCell id="hsLVqGyKf4GTfWMnWfSy-111" value="입력num이 3의&lt;br&gt;배수이면서 5의&lt;br&gt;배수 입니다." style="shape=document;whiteSpace=wrap;html=1;boundedLbl=1;" vertex="1" parent="1">
          <mxGeometry x="1872" y="620" width="100" height="80" as="geometry" />
        </mxCell>
        <mxCell id="hsLVqGyKf4GTfWMnWfSy-114" value="YES" style="text;html=1;align=center;verticalAlign=middle;resizable=0;points=[];autosize=1;strokeColor=none;fillColor=none;" vertex="1" parent="1">
          <mxGeometry x="1930" y="584" width="50" height="30" as="geometry" />
        </mxCell>
        <mxCell id="hsLVqGyKf4GTfWMnWfSy-117" value="&lt;div style=&quot;background-color:#2f2f2f;padding:0px 0px 0px 2px;&quot;&gt;&lt;div style=&quot;color:#cccccc;background-color:#2f2f2f;font-family:&amp;quot;Consolas&amp;quot;;font-size:12pt;white-space:pre;&quot;&gt;&lt;p style=&quot;margin:0;&quot;&gt;&lt;span style=&quot;color:#d9e8f7;&quot;&gt;&lt;span style=&quot;white-space: pre;&quot;&gt;&amp;nbsp;&amp;nbsp;&amp;nbsp;&amp;nbsp;&lt;/span&gt;&lt;span style=&quot;white-space: pre;&quot;&gt;&amp;nbsp;&amp;nbsp;&amp;nbsp;&amp;nbsp;&lt;/span&gt;&lt;/span&gt;&lt;span style=&quot;color:#ff8080;&quot;&gt;// 문제&lt;/span&gt;&lt;/p&gt;&lt;p style=&quot;margin:0;&quot;&gt;&lt;span style=&quot;color:#d9e8f7;&quot;&gt;&lt;span style=&quot;white-space: pre;&quot;&gt;&amp;nbsp;&amp;nbsp;&amp;nbsp;&amp;nbsp;&lt;/span&gt;&lt;span style=&quot;white-space: pre;&quot;&gt;&amp;nbsp;&amp;nbsp;&amp;nbsp;&amp;nbsp;&lt;/span&gt;&lt;/span&gt;&lt;span style=&quot;color:#ff8080;&quot;&gt;// 정수 한개값을 입력받아 3의 배수이면 해당 수를 출력하세요&lt;/span&gt;&lt;/p&gt;&lt;p style=&quot;margin:0;&quot;&gt;&lt;span style=&quot;color:#d9e8f7;&quot;&gt;&lt;span style=&quot;white-space: pre;&quot;&gt;&amp;nbsp;&amp;nbsp;&amp;nbsp;&amp;nbsp;&lt;/span&gt;&lt;span style=&quot;white-space: pre;&quot;&gt;&amp;nbsp;&amp;nbsp;&amp;nbsp;&amp;nbsp;&lt;/span&gt;&lt;/span&gt;&lt;span style=&quot;color:#ff8080;&quot;&gt;// 3의 배수이면서 5의 배수라면 출력&lt;/span&gt;&lt;/p&gt;&lt;/div&gt;&lt;/div&gt;" style="text;whiteSpace=wrap;html=1;" vertex="1" parent="1">
          <mxGeometry x="1510" y="18" width="560" height="80" as="geometry" />
        </mxCell>
        <mxCell id="hsLVqGyKf4GTfWMnWfSy-118" value="&lt;div style=&quot;background-color:#2f2f2f;padding:0px 0px 0px 2px;&quot;&gt;&lt;div style=&quot;color:#cccccc;background-color:#2f2f2f;font-family:&amp;quot;Consolas&amp;quot;;font-size:12pt;white-space:pre;&quot;&gt;&lt;p style=&quot;margin:0;&quot;&gt;&lt;span style=&quot;color:#d9e8f7;&quot;&gt;&lt;span style=&quot;white-space: pre;&quot;&gt;&amp;nbsp;&amp;nbsp;&amp;nbsp;&amp;nbsp;&lt;/span&gt;&lt;span style=&quot;white-space: pre;&quot;&gt;&amp;nbsp;&amp;nbsp;&amp;nbsp;&amp;nbsp;&lt;/span&gt;&lt;/span&gt;&lt;span style=&quot;color:#ff8080;&quot;&gt;//문제&lt;/span&gt;&lt;/p&gt;&lt;p style=&quot;margin:0;&quot;&gt;&lt;span style=&quot;color:#d9e8f7;&quot;&gt;&lt;span style=&quot;white-space: pre;&quot;&gt;&amp;nbsp;&amp;nbsp;&amp;nbsp;&amp;nbsp;&lt;/span&gt;&lt;span style=&quot;white-space: pre;&quot;&gt;&amp;nbsp;&amp;nbsp;&amp;nbsp;&amp;nbsp;&lt;/span&gt;&lt;/span&gt;&lt;span style=&quot;color:#ff8080;&quot;&gt;// 두개의 정수를 입력받아 큰 수 출력&lt;/span&gt;&lt;/p&gt;&lt;/div&gt;&lt;/div&gt;" style="text;whiteSpace=wrap;html=1;" vertex="1" parent="1">
          <mxGeometry x="2190" y="18" width="400" height="60" as="geometry" />
        </mxCell>
        <mxCell id="hsLVqGyKf4GTfWMnWfSy-119" value="" style="edgeStyle=orthogonalEdgeStyle;rounded=0;orthogonalLoop=1;jettySize=auto;html=1;" edge="1" source="hsLVqGyKf4GTfWMnWfSy-120" target="hsLVqGyKf4GTfWMnWfSy-124" parent="1">
          <mxGeometry relative="1" as="geometry" />
        </mxCell>
        <mxCell id="hsLVqGyKf4GTfWMnWfSy-120" value="시작" style="rounded=1;whiteSpace=wrap;html=1;arcSize=50;" vertex="1" parent="1">
          <mxGeometry x="2315" y="145" width="120" height="80" as="geometry" />
        </mxCell>
        <mxCell id="hsLVqGyKf4GTfWMnWfSy-121" value="끝" style="rounded=1;whiteSpace=wrap;html=1;arcSize=50;" vertex="1" parent="1">
          <mxGeometry x="2315.5" y="821" width="120" height="80" as="geometry" />
        </mxCell>
        <mxCell id="hsLVqGyKf4GTfWMnWfSy-122" value="frame" style="shape=umlFrame;whiteSpace=wrap;html=1;pointerEvents=0;" vertex="1" parent="1">
          <mxGeometry x="2140" y="125" width="530" height="920" as="geometry" />
        </mxCell>
        <mxCell id="hsLVqGyKf4GTfWMnWfSy-123" value="" style="edgeStyle=orthogonalEdgeStyle;rounded=0;orthogonalLoop=1;jettySize=auto;html=1;" edge="1" source="hsLVqGyKf4GTfWMnWfSy-124" target="hsLVqGyKf4GTfWMnWfSy-128" parent="1">
          <mxGeometry relative="1" as="geometry" />
        </mxCell>
        <mxCell id="hsLVqGyKf4GTfWMnWfSy-124" value="두개의 정수 값&lt;div&gt;num1, num2 입력&lt;/div&gt;" style="shape=parallelogram;html=1;strokeWidth=2;perimeter=parallelogramPerimeter;whiteSpace=wrap;rounded=1;arcSize=12;size=0.23;" vertex="1" parent="1">
          <mxGeometry x="2310" y="245" width="132.5" height="80" as="geometry" />
        </mxCell>
        <mxCell id="hsLVqGyKf4GTfWMnWfSy-125" value="" style="edgeStyle=orthogonalEdgeStyle;rounded=0;orthogonalLoop=1;jettySize=auto;html=1;" edge="1" source="hsLVqGyKf4GTfWMnWfSy-128" target="hsLVqGyKf4GTfWMnWfSy-131" parent="1">
          <mxGeometry relative="1" as="geometry" />
        </mxCell>
        <mxCell id="hsLVqGyKf4GTfWMnWfSy-126" value="" style="edgeStyle=orthogonalEdgeStyle;rounded=0;orthogonalLoop=1;jettySize=auto;html=1;entryX=0.5;entryY=0;entryDx=0;entryDy=0;" edge="1" source="hsLVqGyKf4GTfWMnWfSy-128" target="hsLVqGyKf4GTfWMnWfSy-133" parent="1">
          <mxGeometry relative="1" as="geometry">
            <mxPoint x="2374.0588235294117" y="470" as="targetPoint" />
          </mxGeometry>
        </mxCell>
        <mxCell id="hsLVqGyKf4GTfWMnWfSy-127" value="" style="edgeStyle=orthogonalEdgeStyle;rounded=0;orthogonalLoop=1;jettySize=auto;html=1;entryX=1;entryY=0.5;entryDx=0;entryDy=0;" edge="1" source="hsLVqGyKf4GTfWMnWfSy-128" target="hsLVqGyKf4GTfWMnWfSy-143" parent="1">
          <mxGeometry relative="1" as="geometry">
            <mxPoint x="2290" y="400" as="targetPoint" />
          </mxGeometry>
        </mxCell>
        <mxCell id="hsLVqGyKf4GTfWMnWfSy-128" value="num1&amp;nbsp; &amp;gt;= num2" style="strokeWidth=2;html=1;shape=mxgraph.flowchart.decision;whiteSpace=wrap;" vertex="1" parent="1">
          <mxGeometry x="2323" y="345" width="104" height="120" as="geometry" />
        </mxCell>
        <mxCell id="hsLVqGyKf4GTfWMnWfSy-129" style="edgeStyle=orthogonalEdgeStyle;rounded=0;orthogonalLoop=1;jettySize=auto;html=1;entryX=1;entryY=0.75;entryDx=0;entryDy=0;exitX=0.519;exitY=0.863;exitDx=0;exitDy=0;exitPerimeter=0;" edge="1" source="hsLVqGyKf4GTfWMnWfSy-131" target="hsLVqGyKf4GTfWMnWfSy-133" parent="1">
          <mxGeometry relative="1" as="geometry">
            <mxPoint x="2545.6000000000004" y="687.0399999999997" as="sourcePoint" />
            <Array as="points">
              <mxPoint x="2548" y="769" />
            </Array>
          </mxGeometry>
        </mxCell>
        <mxCell id="hsLVqGyKf4GTfWMnWfSy-131" value="첫번째 입력한 수&lt;br&gt;num1이 더 큽니다." style="shape=document;whiteSpace=wrap;html=1;boundedLbl=1;" vertex="1" parent="1">
          <mxGeometry x="2492" y="365" width="108" height="80" as="geometry" />
        </mxCell>
        <mxCell id="hsLVqGyKf4GTfWMnWfSy-132" value="" style="edgeStyle=orthogonalEdgeStyle;rounded=0;orthogonalLoop=1;jettySize=auto;html=1;" edge="1" source="hsLVqGyKf4GTfWMnWfSy-133" target="hsLVqGyKf4GTfWMnWfSy-121" parent="1">
          <mxGeometry relative="1" as="geometry" />
        </mxCell>
        <mxCell id="hsLVqGyKf4GTfWMnWfSy-133" value="프로그램 종료" style="shape=parallelogram;html=1;strokeWidth=2;perimeter=parallelogramPerimeter;whiteSpace=wrap;rounded=1;arcSize=12;size=0.23;" vertex="1" parent="1">
          <mxGeometry x="2304.5" y="715" width="141.5" height="80" as="geometry" />
        </mxCell>
        <mxCell id="hsLVqGyKf4GTfWMnWfSy-134" value="NO" style="text;html=1;align=center;verticalAlign=middle;resizable=0;points=[];autosize=1;strokeColor=none;fillColor=none;" vertex="1" parent="1">
          <mxGeometry x="2262" y="365" width="40" height="30" as="geometry" />
        </mxCell>
        <mxCell id="hsLVqGyKf4GTfWMnWfSy-135" value="YES" style="text;html=1;align=center;verticalAlign=middle;resizable=0;points=[];autosize=1;strokeColor=none;fillColor=none;" vertex="1" parent="1">
          <mxGeometry x="2432.5" y="365" width="50" height="30" as="geometry" />
        </mxCell>
        <mxCell id="hsLVqGyKf4GTfWMnWfSy-136" style="edgeStyle=orthogonalEdgeStyle;rounded=0;orthogonalLoop=1;jettySize=auto;html=1;entryX=0;entryY=0.75;entryDx=0;entryDy=0;exitX=0.554;exitY=0.775;exitDx=0;exitDy=0;exitPerimeter=0;" edge="1" source="hsLVqGyKf4GTfWMnWfSy-143" target="hsLVqGyKf4GTfWMnWfSy-133" parent="1">
          <mxGeometry relative="1" as="geometry">
            <mxPoint x="2219.0000000000005" y="445" as="sourcePoint" />
            <Array as="points">
              <mxPoint x="2220" y="772" />
            </Array>
          </mxGeometry>
        </mxCell>
        <mxCell id="hsLVqGyKf4GTfWMnWfSy-143" value="두번째 입력한 수&lt;br&gt;num2이 더 큽니다." style="shape=document;whiteSpace=wrap;html=1;boundedLbl=1;" vertex="1" parent="1">
          <mxGeometry x="2160" y="365" width="108" height="80" as="geometry" />
        </mxCell>
        <mxCell id="hsLVqGyKf4GTfWMnWfSy-145" value="" style="edgeStyle=orthogonalEdgeStyle;rounded=0;orthogonalLoop=1;jettySize=auto;html=1;" edge="1" source="hsLVqGyKf4GTfWMnWfSy-146" target="hsLVqGyKf4GTfWMnWfSy-150" parent="1">
          <mxGeometry relative="1" as="geometry" />
        </mxCell>
        <mxCell id="hsLVqGyKf4GTfWMnWfSy-146" value="시작" style="rounded=1;whiteSpace=wrap;html=1;arcSize=50;" vertex="1" parent="1">
          <mxGeometry x="2985" y="145" width="120" height="80" as="geometry" />
        </mxCell>
        <mxCell id="hsLVqGyKf4GTfWMnWfSy-147" value="끝" style="rounded=1;whiteSpace=wrap;html=1;arcSize=50;" vertex="1" parent="1">
          <mxGeometry x="2985.5" y="821" width="120" height="80" as="geometry" />
        </mxCell>
        <mxCell id="hsLVqGyKf4GTfWMnWfSy-148" value="frame" style="shape=umlFrame;whiteSpace=wrap;html=1;pointerEvents=0;" vertex="1" parent="1">
          <mxGeometry x="2700" y="125" width="750" height="920" as="geometry" />
        </mxCell>
        <mxCell id="hsLVqGyKf4GTfWMnWfSy-149" value="" style="edgeStyle=orthogonalEdgeStyle;rounded=0;orthogonalLoop=1;jettySize=auto;html=1;" edge="1" source="hsLVqGyKf4GTfWMnWfSy-150" target="hsLVqGyKf4GTfWMnWfSy-154" parent="1">
          <mxGeometry relative="1" as="geometry" />
        </mxCell>
        <mxCell id="hsLVqGyKf4GTfWMnWfSy-150" value="세개의 정수 값&lt;div&gt;num1, num2, num3&lt;br&gt;&amp;nbsp;입력&lt;/div&gt;" style="shape=parallelogram;html=1;strokeWidth=2;perimeter=parallelogramPerimeter;whiteSpace=wrap;rounded=1;arcSize=12;size=0.23;" vertex="1" parent="1">
          <mxGeometry x="2970" y="245" width="150" height="80" as="geometry" />
        </mxCell>
        <mxCell id="hsLVqGyKf4GTfWMnWfSy-151" value="" style="edgeStyle=orthogonalEdgeStyle;rounded=0;orthogonalLoop=1;jettySize=auto;html=1;" edge="1" source="hsLVqGyKf4GTfWMnWfSy-154" parent="1">
          <mxGeometry relative="1" as="geometry">
            <mxPoint x="3162" y="405" as="targetPoint" />
          </mxGeometry>
        </mxCell>
        <mxCell id="hsLVqGyKf4GTfWMnWfSy-152" value="" style="edgeStyle=orthogonalEdgeStyle;rounded=0;orthogonalLoop=1;jettySize=auto;html=1;entryX=0.5;entryY=0;entryDx=0;entryDy=0;" edge="1" source="hsLVqGyKf4GTfWMnWfSy-154" target="hsLVqGyKf4GTfWMnWfSy-158" parent="1">
          <mxGeometry relative="1" as="geometry">
            <mxPoint x="3044.0588235294117" y="470" as="targetPoint" />
          </mxGeometry>
        </mxCell>
        <mxCell id="hsLVqGyKf4GTfWMnWfSy-153" value="" style="edgeStyle=orthogonalEdgeStyle;rounded=0;orthogonalLoop=1;jettySize=auto;html=1;entryX=1;entryY=0.5;entryDx=0;entryDy=0;" edge="1" source="hsLVqGyKf4GTfWMnWfSy-154" parent="1">
          <mxGeometry relative="1" as="geometry">
            <mxPoint x="2938.0000000000005" y="405.0000000000002" as="targetPoint" />
          </mxGeometry>
        </mxCell>
        <mxCell id="hsLVqGyKf4GTfWMnWfSy-154" value="num1&amp;nbsp; &amp;gt; num2" style="strokeWidth=2;html=1;shape=mxgraph.flowchart.decision;whiteSpace=wrap;" vertex="1" parent="1">
          <mxGeometry x="2993" y="345" width="104" height="120" as="geometry" />
        </mxCell>
        <mxCell id="hsLVqGyKf4GTfWMnWfSy-157" value="" style="edgeStyle=orthogonalEdgeStyle;rounded=0;orthogonalLoop=1;jettySize=auto;html=1;" edge="1" source="hsLVqGyKf4GTfWMnWfSy-158" target="hsLVqGyKf4GTfWMnWfSy-147" parent="1">
          <mxGeometry relative="1" as="geometry" />
        </mxCell>
        <mxCell id="hsLVqGyKf4GTfWMnWfSy-158" value="프로그램 종료" style="shape=parallelogram;html=1;strokeWidth=2;perimeter=parallelogramPerimeter;whiteSpace=wrap;rounded=1;arcSize=12;size=0.23;" vertex="1" parent="1">
          <mxGeometry x="2974.5" y="715" width="141.5" height="80" as="geometry" />
        </mxCell>
        <mxCell id="hsLVqGyKf4GTfWMnWfSy-159" value="NO" style="text;html=1;align=center;verticalAlign=middle;resizable=0;points=[];autosize=1;strokeColor=none;fillColor=none;" vertex="1" parent="1">
          <mxGeometry x="2932" y="365" width="40" height="30" as="geometry" />
        </mxCell>
        <mxCell id="hsLVqGyKf4GTfWMnWfSy-160" value="YES" style="text;html=1;align=center;verticalAlign=middle;resizable=0;points=[];autosize=1;strokeColor=none;fillColor=none;" vertex="1" parent="1">
          <mxGeometry x="3102.5" y="365" width="50" height="30" as="geometry" />
        </mxCell>
        <mxCell id="hsLVqGyKf4GTfWMnWfSy-161" style="edgeStyle=orthogonalEdgeStyle;rounded=0;orthogonalLoop=1;jettySize=auto;html=1;entryX=0;entryY=0.75;entryDx=0;entryDy=0;exitX=0.491;exitY=0.864;exitDx=0;exitDy=0;exitPerimeter=0;" edge="1" source="hsLVqGyKf4GTfWMnWfSy-174" target="hsLVqGyKf4GTfWMnWfSy-158" parent="1">
          <mxGeometry relative="1" as="geometry">
            <mxPoint x="2889.832" y="427.0000000000002" as="sourcePoint" />
            <Array as="points">
              <mxPoint x="2890" y="574" />
              <mxPoint x="2890" y="772" />
            </Array>
          </mxGeometry>
        </mxCell>
        <mxCell id="hsLVqGyKf4GTfWMnWfSy-172" style="edgeStyle=orthogonalEdgeStyle;rounded=0;orthogonalLoop=1;jettySize=auto;html=1;entryX=1;entryY=0.75;entryDx=0;entryDy=0;" edge="1" parent="1" source="hsLVqGyKf4GTfWMnWfSy-165" target="hsLVqGyKf4GTfWMnWfSy-158">
          <mxGeometry relative="1" as="geometry">
            <Array as="points">
              <mxPoint x="3212" y="769" />
            </Array>
          </mxGeometry>
        </mxCell>
        <mxCell id="hsLVqGyKf4GTfWMnWfSy-165" value="첫번째 입력한 수&lt;br&gt;num1이 가장&lt;br&gt;&amp;nbsp;큽니다." style="shape=document;whiteSpace=wrap;html=1;boundedLbl=1;" vertex="1" parent="1">
          <mxGeometry x="3158" y="519" width="108" height="80" as="geometry" />
        </mxCell>
        <mxCell id="hsLVqGyKf4GTfWMnWfSy-167" value="" style="edgeStyle=orthogonalEdgeStyle;rounded=0;orthogonalLoop=1;jettySize=auto;html=1;" edge="1" parent="1" source="hsLVqGyKf4GTfWMnWfSy-166" target="hsLVqGyKf4GTfWMnWfSy-165">
          <mxGeometry relative="1" as="geometry" />
        </mxCell>
        <mxCell id="hsLVqGyKf4GTfWMnWfSy-170" value="" style="edgeStyle=orthogonalEdgeStyle;rounded=0;orthogonalLoop=1;jettySize=auto;html=1;" edge="1" parent="1" source="hsLVqGyKf4GTfWMnWfSy-166" target="hsLVqGyKf4GTfWMnWfSy-169">
          <mxGeometry relative="1" as="geometry" />
        </mxCell>
        <mxCell id="hsLVqGyKf4GTfWMnWfSy-166" value="num1&amp;nbsp; &amp;gt; num3" style="strokeWidth=2;html=1;shape=mxgraph.flowchart.decision;whiteSpace=wrap;" vertex="1" parent="1">
          <mxGeometry x="3160" y="345" width="104" height="120" as="geometry" />
        </mxCell>
        <mxCell id="hsLVqGyKf4GTfWMnWfSy-168" value="YES" style="text;html=1;align=center;verticalAlign=middle;resizable=0;points=[];autosize=1;strokeColor=none;fillColor=none;" vertex="1" parent="1">
          <mxGeometry x="3220" y="480" width="50" height="30" as="geometry" />
        </mxCell>
        <mxCell id="hsLVqGyKf4GTfWMnWfSy-185" style="edgeStyle=orthogonalEdgeStyle;rounded=0;orthogonalLoop=1;jettySize=auto;html=1;entryX=1;entryY=0.75;entryDx=0;entryDy=0;" edge="1" parent="1" source="hsLVqGyKf4GTfWMnWfSy-169" target="hsLVqGyKf4GTfWMnWfSy-158">
          <mxGeometry relative="1" as="geometry">
            <Array as="points">
              <mxPoint x="3344" y="769" />
            </Array>
          </mxGeometry>
        </mxCell>
        <mxCell id="hsLVqGyKf4GTfWMnWfSy-169" value="세번째 입력한 수&lt;br&gt;num3이 가장&lt;br&gt;&amp;nbsp;큽니다." style="shape=document;whiteSpace=wrap;html=1;boundedLbl=1;" vertex="1" parent="1">
          <mxGeometry x="3290" y="365" width="108" height="80" as="geometry" />
        </mxCell>
        <mxCell id="hsLVqGyKf4GTfWMnWfSy-171" value="NO" style="text;html=1;align=center;verticalAlign=middle;resizable=0;points=[];autosize=1;strokeColor=none;fillColor=none;" vertex="1" parent="1">
          <mxGeometry x="3250" y="370" width="40" height="30" as="geometry" />
        </mxCell>
        <mxCell id="hsLVqGyKf4GTfWMnWfSy-184" style="edgeStyle=orthogonalEdgeStyle;rounded=0;orthogonalLoop=1;jettySize=auto;html=1;entryX=0;entryY=0.75;entryDx=0;entryDy=0;" edge="1" parent="1" source="hsLVqGyKf4GTfWMnWfSy-173" target="hsLVqGyKf4GTfWMnWfSy-158">
          <mxGeometry relative="1" as="geometry">
            <Array as="points">
              <mxPoint x="2764" y="772" />
            </Array>
          </mxGeometry>
        </mxCell>
        <mxCell id="hsLVqGyKf4GTfWMnWfSy-173" value="세번째 입력한 수&lt;br&gt;num3이 가장&lt;br&gt;&amp;nbsp;큽니다." style="shape=document;whiteSpace=wrap;html=1;boundedLbl=1;" vertex="1" parent="1">
          <mxGeometry x="2710" y="365" width="108" height="80" as="geometry" />
        </mxCell>
        <mxCell id="hsLVqGyKf4GTfWMnWfSy-174" value="두번째 입력한 수&lt;br&gt;num2이 가장&lt;br&gt;큽니다." style="shape=document;whiteSpace=wrap;html=1;boundedLbl=1;" vertex="1" parent="1">
          <mxGeometry x="2840" y="505" width="108" height="80" as="geometry" />
        </mxCell>
        <mxCell id="hsLVqGyKf4GTfWMnWfSy-176" value="" style="edgeStyle=orthogonalEdgeStyle;rounded=0;orthogonalLoop=1;jettySize=auto;html=1;" edge="1" parent="1" source="hsLVqGyKf4GTfWMnWfSy-175" target="hsLVqGyKf4GTfWMnWfSy-173">
          <mxGeometry relative="1" as="geometry" />
        </mxCell>
        <mxCell id="hsLVqGyKf4GTfWMnWfSy-179" value="" style="edgeStyle=orthogonalEdgeStyle;rounded=0;orthogonalLoop=1;jettySize=auto;html=1;" edge="1" parent="1" source="hsLVqGyKf4GTfWMnWfSy-175" target="hsLVqGyKf4GTfWMnWfSy-174">
          <mxGeometry relative="1" as="geometry" />
        </mxCell>
        <mxCell id="hsLVqGyKf4GTfWMnWfSy-175" value="num2&amp;nbsp; &amp;gt; num3" style="strokeWidth=2;html=1;shape=mxgraph.flowchart.decision;whiteSpace=wrap;" vertex="1" parent="1">
          <mxGeometry x="2843" y="345" width="104" height="120" as="geometry" />
        </mxCell>
        <mxCell id="hsLVqGyKf4GTfWMnWfSy-180" value="YES" style="text;html=1;align=center;verticalAlign=middle;resizable=0;points=[];autosize=1;strokeColor=none;fillColor=none;" vertex="1" parent="1">
          <mxGeometry x="2902" y="465" width="50" height="30" as="geometry" />
        </mxCell>
        <mxCell id="hsLVqGyKf4GTfWMnWfSy-181" value="NO" style="text;html=1;align=center;verticalAlign=middle;resizable=0;points=[];autosize=1;strokeColor=none;fillColor=none;" vertex="1" parent="1">
          <mxGeometry x="2818" y="370" width="40" height="30" as="geometry" />
        </mxCell>
        <mxCell id="hsLVqGyKf4GTfWMnWfSy-186" value="&lt;div style=&quot;background-color:#2f2f2f;padding:0px 0px 0px 2px;&quot;&gt;&lt;div style=&quot;color:#cccccc;background-color:#2f2f2f;font-family:&amp;quot;Consolas&amp;quot;;font-size:12pt;white-space:pre;&quot;&gt;&lt;p style=&quot;margin:0;&quot;&gt;&lt;span style=&quot;color:#d9e8f7;&quot;&gt;&lt;span style=&quot;white-space: pre;&quot;&gt;&amp;nbsp;&amp;nbsp;&amp;nbsp;&amp;nbsp;&lt;/span&gt;&lt;span style=&quot;white-space: pre;&quot;&gt;&amp;nbsp;&amp;nbsp;&amp;nbsp;&amp;nbsp;&lt;/span&gt;&lt;/span&gt;&lt;span style=&quot;color:#ff8080;&quot;&gt;//문제&lt;/span&gt;&lt;/p&gt;&lt;p style=&quot;margin:0;&quot;&gt;&lt;span style=&quot;color:#d9e8f7;&quot;&gt;&lt;span style=&quot;white-space: pre;&quot;&gt;&amp;nbsp;&amp;nbsp;&amp;nbsp;&amp;nbsp;&lt;/span&gt;&lt;span style=&quot;white-space: pre;&quot;&gt;&amp;nbsp;&amp;nbsp;&amp;nbsp;&amp;nbsp;&lt;/span&gt;&lt;/span&gt;&lt;span style=&quot;color:#ff8080;&quot;&gt;// 세 개의 정수를 입력받아 큰 수 출력&lt;/span&gt;&lt;/p&gt;&lt;/div&gt;&lt;/div&gt;" style="text;whiteSpace=wrap;html=1;" vertex="1" parent="1">
          <mxGeometry x="2790" y="38" width="410" height="60" as="geometry" />
        </mxCell>
        <mxCell id="hsLVqGyKf4GTfWMnWfSy-187" value="" style="edgeStyle=orthogonalEdgeStyle;rounded=0;orthogonalLoop=1;jettySize=auto;html=1;" edge="1" source="hsLVqGyKf4GTfWMnWfSy-197" target="hsLVqGyKf4GTfWMnWfSy-200" parent="1">
          <mxGeometry relative="1" as="geometry" />
        </mxCell>
        <mxCell id="hsLVqGyKf4GTfWMnWfSy-188" value="" style="edgeStyle=orthogonalEdgeStyle;rounded=0;orthogonalLoop=1;jettySize=auto;html=1;" edge="1" source="hsLVqGyKf4GTfWMnWfSy-200" target="hsLVqGyKf4GTfWMnWfSy-201" parent="1">
          <mxGeometry relative="1" as="geometry" />
        </mxCell>
        <mxCell id="hsLVqGyKf4GTfWMnWfSy-189" value="" style="edgeStyle=orthogonalEdgeStyle;rounded=0;orthogonalLoop=1;jettySize=auto;html=1;" edge="1" source="hsLVqGyKf4GTfWMnWfSy-201" target="hsLVqGyKf4GTfWMnWfSy-202" parent="1">
          <mxGeometry relative="1" as="geometry" />
        </mxCell>
        <mxCell id="hsLVqGyKf4GTfWMnWfSy-190" value="" style="edgeStyle=orthogonalEdgeStyle;rounded=0;orthogonalLoop=1;jettySize=auto;html=1;entryX=0.5;entryY=0;entryDx=0;entryDy=0;" edge="1" source="hsLVqGyKf4GTfWMnWfSy-201" target="hsLVqGyKf4GTfWMnWfSy-203" parent="1">
          <mxGeometry relative="1" as="geometry">
            <mxPoint x="3864.0588235294117" y="470" as="targetPoint" />
          </mxGeometry>
        </mxCell>
        <mxCell id="hsLVqGyKf4GTfWMnWfSy-191" value="" style="edgeStyle=orthogonalEdgeStyle;rounded=0;orthogonalLoop=1;jettySize=auto;html=1;entryX=1;entryY=0.5;entryDx=0;entryDy=0;entryPerimeter=0;" edge="1" source="hsLVqGyKf4GTfWMnWfSy-201" target="hsLVqGyKf4GTfWMnWfSy-212" parent="1">
          <mxGeometry relative="1" as="geometry">
            <mxPoint x="3759" y="405" as="targetPoint" />
          </mxGeometry>
        </mxCell>
        <mxCell id="hsLVqGyKf4GTfWMnWfSy-192" style="edgeStyle=orthogonalEdgeStyle;rounded=0;orthogonalLoop=1;jettySize=auto;html=1;entryX=1;entryY=0.75;entryDx=0;entryDy=0;" edge="1" source="hsLVqGyKf4GTfWMnWfSy-202" target="hsLVqGyKf4GTfWMnWfSy-203" parent="1">
          <mxGeometry relative="1" as="geometry">
            <mxPoint x="4035.5999999999995" y="687.04" as="sourcePoint" />
            <Array as="points">
              <mxPoint x="4032" y="769" />
            </Array>
          </mxGeometry>
        </mxCell>
        <mxCell id="hsLVqGyKf4GTfWMnWfSy-194" value="" style="edgeStyle=orthogonalEdgeStyle;rounded=0;orthogonalLoop=1;jettySize=auto;html=1;" edge="1" source="hsLVqGyKf4GTfWMnWfSy-203" target="hsLVqGyKf4GTfWMnWfSy-198" parent="1">
          <mxGeometry relative="1" as="geometry" />
        </mxCell>
        <mxCell id="hsLVqGyKf4GTfWMnWfSy-197" value="시작" style="rounded=1;whiteSpace=wrap;html=1;arcSize=50;" vertex="1" parent="1">
          <mxGeometry x="3805" y="145" width="120" height="80" as="geometry" />
        </mxCell>
        <mxCell id="hsLVqGyKf4GTfWMnWfSy-198" value="끝" style="rounded=1;whiteSpace=wrap;html=1;arcSize=50;" vertex="1" parent="1">
          <mxGeometry x="3805.5" y="821" width="120" height="80" as="geometry" />
        </mxCell>
        <mxCell id="hsLVqGyKf4GTfWMnWfSy-199" value="frame" style="shape=umlFrame;whiteSpace=wrap;html=1;pointerEvents=0;" vertex="1" parent="1">
          <mxGeometry x="3500" y="125" width="660" height="920" as="geometry" />
        </mxCell>
        <mxCell id="hsLVqGyKf4GTfWMnWfSy-200" value="정수 값 num 입력" style="shape=parallelogram;html=1;strokeWidth=2;perimeter=parallelogramPerimeter;whiteSpace=wrap;rounded=1;arcSize=12;size=0.23;" vertex="1" parent="1">
          <mxGeometry x="3800" y="245" width="132.5" height="80" as="geometry" />
        </mxCell>
        <mxCell id="hsLVqGyKf4GTfWMnWfSy-201" value="입력num이&amp;nbsp;&lt;div&gt;짝수이고,&lt;br&gt;3의배수인가?&lt;/div&gt;" style="strokeWidth=2;html=1;shape=mxgraph.flowchart.decision;whiteSpace=wrap;" vertex="1" parent="1">
          <mxGeometry x="3801" y="345" width="127" height="135" as="geometry" />
        </mxCell>
        <mxCell id="hsLVqGyKf4GTfWMnWfSy-202" value="입력한 수 num : 짝수, 3의 배수" style="shape=document;whiteSpace=wrap;html=1;boundedLbl=1;" vertex="1" parent="1">
          <mxGeometry x="3982" y="373" width="100" height="80" as="geometry" />
        </mxCell>
        <mxCell id="hsLVqGyKf4GTfWMnWfSy-203" value="프로그램 종료" style="shape=parallelogram;html=1;strokeWidth=2;perimeter=parallelogramPerimeter;whiteSpace=wrap;rounded=1;arcSize=12;size=0.23;" vertex="1" parent="1">
          <mxGeometry x="3794.5" y="715" width="141.5" height="80" as="geometry" />
        </mxCell>
        <mxCell id="hsLVqGyKf4GTfWMnWfSy-204" value="NO" style="text;html=1;align=center;verticalAlign=middle;resizable=0;points=[];autosize=1;strokeColor=none;fillColor=none;" vertex="1" parent="1">
          <mxGeometry x="3752" y="365" width="40" height="30" as="geometry" />
        </mxCell>
        <mxCell id="hsLVqGyKf4GTfWMnWfSy-205" value="YES" style="text;html=1;align=center;verticalAlign=middle;resizable=0;points=[];autosize=1;strokeColor=none;fillColor=none;" vertex="1" parent="1">
          <mxGeometry x="3922.5" y="365" width="50" height="30" as="geometry" />
        </mxCell>
        <mxCell id="hsLVqGyKf4GTfWMnWfSy-211" value="&lt;div style=&quot;background-color:#2f2f2f;padding:0px 0px 0px 2px;&quot;&gt;&lt;div style=&quot;color:#cccccc;background-color:#2f2f2f;font-family:&amp;quot;Consolas&amp;quot;;font-size:12pt;white-space:pre;&quot;&gt;&lt;p style=&quot;margin:0;&quot;&gt;&lt;span style=&quot;color:#d9e8f7;&quot;&gt;&lt;span style=&quot;white-space: pre;&quot;&gt;&amp;nbsp;&amp;nbsp;&amp;nbsp;&amp;nbsp;&lt;/span&gt;&lt;span style=&quot;white-space: pre;&quot;&gt;&amp;nbsp;&amp;nbsp;&amp;nbsp;&amp;nbsp;&lt;/span&gt;&lt;/span&gt;&lt;span style=&quot;color:#ff8080;&quot;&gt;//문제&lt;/span&gt;&lt;/p&gt;&lt;p style=&quot;margin:0;&quot;&gt;&lt;span style=&quot;color:#d9e8f7;&quot;&gt;&lt;span style=&quot;white-space: pre;&quot;&gt;&amp;nbsp;&amp;nbsp;&amp;nbsp;&amp;nbsp;&lt;/span&gt;&lt;span style=&quot;white-space: pre;&quot;&gt;&amp;nbsp;&amp;nbsp;&amp;nbsp;&amp;nbsp;&lt;/span&gt;&lt;/span&gt;&lt;span style=&quot;color:#ff8080;&quot;&gt;// 입력한 수가 짝수이고, 3의 배수라면 출력&lt;/span&gt;&lt;/p&gt;&lt;p style=&quot;margin:0;&quot;&gt;&lt;span style=&quot;color:#d9e8f7;&quot;&gt;&lt;span style=&quot;white-space: pre;&quot;&gt;&amp;nbsp;&amp;nbsp;&amp;nbsp;&amp;nbsp;&lt;/span&gt;&lt;span style=&quot;white-space: pre;&quot;&gt;&amp;nbsp;&amp;nbsp;&amp;nbsp;&amp;nbsp;&lt;/span&gt;&lt;/span&gt;&lt;span style=&quot;color:#ff8080;&quot;&gt;// 입력한 수가 홀수이고, 5의 배수라면 출력&lt;/span&gt;&lt;/p&gt;&lt;/div&gt;&lt;/div&gt;" style="text;whiteSpace=wrap;html=1;" vertex="1" parent="1">
          <mxGeometry x="3634" y="28" width="450" height="80" as="geometry" />
        </mxCell>
        <mxCell id="hsLVqGyKf4GTfWMnWfSy-214" value="" style="edgeStyle=orthogonalEdgeStyle;rounded=0;orthogonalLoop=1;jettySize=auto;html=1;" edge="1" parent="1" source="hsLVqGyKf4GTfWMnWfSy-212" target="hsLVqGyKf4GTfWMnWfSy-213">
          <mxGeometry relative="1" as="geometry" />
        </mxCell>
        <mxCell id="hsLVqGyKf4GTfWMnWfSy-216" style="edgeStyle=orthogonalEdgeStyle;rounded=0;orthogonalLoop=1;jettySize=auto;html=1;entryX=0;entryY=0.75;entryDx=0;entryDy=0;" edge="1" parent="1" source="hsLVqGyKf4GTfWMnWfSy-212" target="hsLVqGyKf4GTfWMnWfSy-203">
          <mxGeometry relative="1" as="geometry">
            <Array as="points">
              <mxPoint x="3694" y="770" />
              <mxPoint x="3804" y="770" />
            </Array>
          </mxGeometry>
        </mxCell>
        <mxCell id="hsLVqGyKf4GTfWMnWfSy-212" value="입력num이&amp;nbsp;&lt;div&gt;홀수이고,&lt;br&gt;5의배수인가?&lt;/div&gt;" style="strokeWidth=2;html=1;shape=mxgraph.flowchart.decision;whiteSpace=wrap;" vertex="1" parent="1">
          <mxGeometry x="3630" y="345" width="127" height="135" as="geometry" />
        </mxCell>
        <mxCell id="hsLVqGyKf4GTfWMnWfSy-217" style="edgeStyle=orthogonalEdgeStyle;rounded=0;orthogonalLoop=1;jettySize=auto;html=1;entryX=0;entryY=0.75;entryDx=0;entryDy=0;" edge="1" parent="1" source="hsLVqGyKf4GTfWMnWfSy-213" target="hsLVqGyKf4GTfWMnWfSy-203">
          <mxGeometry relative="1" as="geometry">
            <Array as="points">
              <mxPoint x="3560" y="772" />
            </Array>
          </mxGeometry>
        </mxCell>
        <mxCell id="hsLVqGyKf4GTfWMnWfSy-213" value="입력한 수 num : 홀수, 5의 배수" style="shape=document;whiteSpace=wrap;html=1;boundedLbl=1;" vertex="1" parent="1">
          <mxGeometry x="3510" y="372.5" width="100" height="80" as="geometry" />
        </mxCell>
        <mxCell id="hsLVqGyKf4GTfWMnWfSy-218" value="YES" style="text;html=1;align=center;verticalAlign=middle;resizable=0;points=[];autosize=1;strokeColor=none;fillColor=none;" vertex="1" parent="1">
          <mxGeometry x="3596" y="373" width="50" height="30" as="geometry" />
        </mxCell>
        <mxCell id="hsLVqGyKf4GTfWMnWfSy-219" value="NO" style="text;html=1;align=center;verticalAlign=middle;resizable=0;points=[];autosize=1;strokeColor=none;fillColor=none;" vertex="1" parent="1">
          <mxGeometry x="3712" y="490" width="40" height="30" as="geometry" />
        </mxCell>
        <mxCell id="hsLVqGyKf4GTfWMnWfSy-220" value="1 문제" style="shape=umlFrame;whiteSpace=wrap;html=1;pointerEvents=0;width=100;height=30;" vertex="1" parent="1">
          <mxGeometry x="1480" y="1160" width="660" height="1080" as="geometry" />
        </mxCell>
        <mxCell id="hsLVqGyKf4GTfWMnWfSy-221" value="" style="edgeStyle=none;curved=1;rounded=0;orthogonalLoop=1;jettySize=auto;html=1;fontSize=12;startSize=8;endSize=8;" edge="1" parent="1" source="hsLVqGyKf4GTfWMnWfSy-222" target="hsLVqGyKf4GTfWMnWfSy-225">
          <mxGeometry relative="1" as="geometry" />
        </mxCell>
        <mxCell id="hsLVqGyKf4GTfWMnWfSy-222" value="시작&lt;span style=&quot;color: rgba(0, 0, 0, 0); font-family: monospace; font-size: 0px; text-align: start; text-wrap: nowrap;&quot;&gt;%3CmxGraphModel%3E%3Croot%3E%3CmxCell%20id%3D%220%22%2F%3E%3CmxCell%20id%3D%221%22%20parent%3D%220%22%2F%3E%3CmxCell%20id%3D%222%22%20value%3D%22%EB%81%9D%22%20style%3D%22strokeWidth%3D2%3Bhtml%3D1%3Bshape%3Dmxgraph.flowchart.terminator%3BwhiteSpace%3Dwrap%3B%22%20vertex%3D%221%22%20parent%3D%221%22%3E%3CmxGeometry%20x%3D%22-122.5%22%20y%3D%22810%22%20width%3D%22100%22%20height%3D%2260%22%20as%3D%22geometry%22%2F%3E%3C%2FmxCell%3E%3C%2Froot%3E%3C%2FmxGraphModel%3E&lt;/span&gt;" style="strokeWidth=2;html=1;shape=mxgraph.flowchart.terminator;whiteSpace=wrap;" vertex="1" parent="1">
          <mxGeometry x="1740" y="1200" width="100" height="60" as="geometry" />
        </mxCell>
        <mxCell id="hsLVqGyKf4GTfWMnWfSy-223" value="끝" style="strokeWidth=2;html=1;shape=mxgraph.flowchart.terminator;whiteSpace=wrap;" vertex="1" parent="1">
          <mxGeometry x="1742.5" y="2090" width="100" height="60" as="geometry" />
        </mxCell>
        <mxCell id="hsLVqGyKf4GTfWMnWfSy-224" value="" style="edgeStyle=none;curved=1;rounded=0;orthogonalLoop=1;jettySize=auto;html=1;fontSize=12;startSize=8;endSize=8;" edge="1" parent="1" source="hsLVqGyKf4GTfWMnWfSy-225" target="hsLVqGyKf4GTfWMnWfSy-227">
          <mxGeometry relative="1" as="geometry" />
        </mxCell>
        <mxCell id="hsLVqGyKf4GTfWMnWfSy-225" value="num 입력" style="shape=parallelogram;html=1;strokeWidth=2;perimeter=parallelogramPerimeter;whiteSpace=wrap;rounded=1;arcSize=12;size=0.23;" vertex="1" parent="1">
          <mxGeometry x="1722.5" y="1330" width="135" height="60" as="geometry" />
        </mxCell>
        <mxCell id="hsLVqGyKf4GTfWMnWfSy-226" value="" style="edgeStyle=none;curved=1;rounded=0;orthogonalLoop=1;jettySize=auto;html=1;fontSize=12;startSize=8;endSize=8;" edge="1" parent="1" source="hsLVqGyKf4GTfWMnWfSy-227" target="hsLVqGyKf4GTfWMnWfSy-231">
          <mxGeometry relative="1" as="geometry" />
        </mxCell>
        <mxCell id="hsLVqGyKf4GTfWMnWfSy-227" value="num%3==0" style="strokeWidth=2;html=1;shape=mxgraph.flowchart.decision;whiteSpace=wrap;" vertex="1" parent="1">
          <mxGeometry x="1742.5" y="1450" width="100" height="100" as="geometry" />
        </mxCell>
        <mxCell id="hsLVqGyKf4GTfWMnWfSy-228" value="" style="edgeStyle=none;curved=1;rounded=0;orthogonalLoop=1;jettySize=auto;html=1;fontSize=12;startSize=8;endSize=8;" edge="1" parent="1" source="hsLVqGyKf4GTfWMnWfSy-229" target="hsLVqGyKf4GTfWMnWfSy-233">
          <mxGeometry relative="1" as="geometry" />
        </mxCell>
        <mxCell id="hsLVqGyKf4GTfWMnWfSy-229" value="num%5==0" style="strokeWidth=2;html=1;shape=mxgraph.flowchart.decision;whiteSpace=wrap;" vertex="1" parent="1">
          <mxGeometry x="1742.5" y="1740" width="100" height="100" as="geometry" />
        </mxCell>
        <mxCell id="hsLVqGyKf4GTfWMnWfSy-230" value="" style="edgeStyle=none;curved=1;rounded=0;orthogonalLoop=1;jettySize=auto;html=1;fontSize=12;startSize=8;endSize=8;" edge="1" parent="1" source="hsLVqGyKf4GTfWMnWfSy-231" target="hsLVqGyKf4GTfWMnWfSy-229">
          <mxGeometry relative="1" as="geometry" />
        </mxCell>
        <mxCell id="hsLVqGyKf4GTfWMnWfSy-231" value="&quot;3의 배수입니다&quot;" style="shape=parallelogram;html=1;strokeWidth=2;perimeter=parallelogramPerimeter;whiteSpace=wrap;rounded=1;arcSize=12;size=0.23;" vertex="1" parent="1">
          <mxGeometry x="1725" y="1620" width="135" height="60" as="geometry" />
        </mxCell>
        <mxCell id="hsLVqGyKf4GTfWMnWfSy-232" value="" style="edgeStyle=none;curved=1;rounded=0;orthogonalLoop=1;jettySize=auto;html=1;fontSize=12;startSize=8;endSize=8;" edge="1" parent="1" source="hsLVqGyKf4GTfWMnWfSy-233" target="hsLVqGyKf4GTfWMnWfSy-223">
          <mxGeometry relative="1" as="geometry" />
        </mxCell>
        <mxCell id="hsLVqGyKf4GTfWMnWfSy-233" value="&quot;5의 배수입니다&quot;" style="shape=parallelogram;html=1;strokeWidth=2;perimeter=parallelogramPerimeter;whiteSpace=wrap;rounded=1;arcSize=12;size=0.23;" vertex="1" parent="1">
          <mxGeometry x="1725" y="1930" width="135" height="60" as="geometry" />
        </mxCell>
        <mxCell id="hsLVqGyKf4GTfWMnWfSy-234" value="YES" style="text;html=1;align=center;verticalAlign=middle;resizable=0;points=[];autosize=1;strokeColor=none;fillColor=none;fontSize=16;" vertex="1" parent="1">
          <mxGeometry x="1795" y="1551" width="60" height="30" as="geometry" />
        </mxCell>
        <mxCell id="hsLVqGyKf4GTfWMnWfSy-235" value="YES" style="text;html=1;align=center;verticalAlign=middle;resizable=0;points=[];autosize=1;strokeColor=none;fillColor=none;fontSize=16;" vertex="1" parent="1">
          <mxGeometry x="1795" y="1840" width="60" height="30" as="geometry" />
        </mxCell>
        <mxCell id="hsLVqGyKf4GTfWMnWfSy-236" value="" style="edgeStyle=none;curved=0;rounded=0;orthogonalLoop=1;jettySize=auto;html=1;fontSize=12;startSize=8;endSize=8;exitX=0;exitY=0.5;exitDx=0;exitDy=0;exitPerimeter=0;" edge="1" parent="1" source="hsLVqGyKf4GTfWMnWfSy-227">
          <mxGeometry relative="1" as="geometry">
            <mxPoint x="1803" y="1850" as="sourcePoint" />
            <mxPoint x="1740" y="2120" as="targetPoint" />
            <Array as="points">
              <mxPoint x="1540" y="1500" />
              <mxPoint x="1540" y="2120" />
            </Array>
          </mxGeometry>
        </mxCell>
        <mxCell id="hsLVqGyKf4GTfWMnWfSy-237" value="NO" style="text;html=1;align=center;verticalAlign=middle;resizable=0;points=[];autosize=1;strokeColor=none;fillColor=none;fontSize=16;" vertex="1" parent="1">
          <mxGeometry x="1700" y="1470" width="50" height="30" as="geometry" />
        </mxCell>
        <mxCell id="hsLVqGyKf4GTfWMnWfSy-238" value="" style="edgeStyle=none;curved=0;rounded=0;orthogonalLoop=1;jettySize=auto;html=1;fontSize=12;startSize=8;endSize=8;exitX=0;exitY=0.5;exitDx=0;exitDy=0;exitPerimeter=0;" edge="1" parent="1" source="hsLVqGyKf4GTfWMnWfSy-229">
          <mxGeometry relative="1" as="geometry">
            <mxPoint x="1803" y="1850" as="sourcePoint" />
            <mxPoint x="1740" y="2120" as="targetPoint" />
            <Array as="points">
              <mxPoint x="1540" y="1790" />
              <mxPoint x="1540" y="2120" />
            </Array>
          </mxGeometry>
        </mxCell>
        <mxCell id="hsLVqGyKf4GTfWMnWfSy-239" value="NO" style="text;html=1;align=center;verticalAlign=middle;resizable=0;points=[];autosize=1;strokeColor=none;fillColor=none;fontSize=16;" vertex="1" parent="1">
          <mxGeometry x="1700" y="1760" width="50" height="30" as="geometry" />
        </mxCell>
        <mxCell id="hsLVqGyKf4GTfWMnWfSy-240" value="3 문제" style="shape=umlFrame;whiteSpace=wrap;html=1;pointerEvents=0;width=100;height=30;" vertex="1" parent="1">
          <mxGeometry x="2830" y="1180" width="660" height="1080" as="geometry" />
        </mxCell>
        <mxCell id="hsLVqGyKf4GTfWMnWfSy-241" value="" style="edgeStyle=none;curved=1;rounded=0;orthogonalLoop=1;jettySize=auto;html=1;fontSize=12;startSize=8;endSize=8;" edge="1" parent="1" source="hsLVqGyKf4GTfWMnWfSy-242" target="hsLVqGyKf4GTfWMnWfSy-245">
          <mxGeometry relative="1" as="geometry" />
        </mxCell>
        <mxCell id="hsLVqGyKf4GTfWMnWfSy-242" value="시작&lt;span style=&quot;color: rgba(0, 0, 0, 0); font-family: monospace; font-size: 0px; text-align: start; text-wrap: nowrap;&quot;&gt;%3CmxGraphModel%3E%3Croot%3E%3CmxCell%20id%3D%220%22%2F%3E%3CmxCell%20id%3D%221%22%20parent%3D%220%22%2F%3E%3CmxCell%20id%3D%222%22%20value%3D%22%EB%81%9D%22%20style%3D%22strokeWidth%3D2%3Bhtml%3D1%3Bshape%3Dmxgraph.flowchart.terminator%3BwhiteSpace%3Dwrap%3B%22%20vertex%3D%221%22%20parent%3D%221%22%3E%3CmxGeometry%20x%3D%22-122.5%22%20y%3D%22810%22%20width%3D%22100%22%20height%3D%2260%22%20as%3D%22geometry%22%2F%3E%3C%2FmxCell%3E%3C%2Froot%3E%3C%2FmxGraphModel%3E&lt;/span&gt;" style="strokeWidth=2;html=1;shape=mxgraph.flowchart.terminator;whiteSpace=wrap;" vertex="1" parent="1">
          <mxGeometry x="3100" y="1230" width="100" height="60" as="geometry" />
        </mxCell>
        <mxCell id="hsLVqGyKf4GTfWMnWfSy-243" value="끝" style="strokeWidth=2;html=1;shape=mxgraph.flowchart.terminator;whiteSpace=wrap;" vertex="1" parent="1">
          <mxGeometry x="3102.5" y="2190" width="100" height="60" as="geometry" />
        </mxCell>
        <mxCell id="hsLVqGyKf4GTfWMnWfSy-244" value="" style="edgeStyle=none;curved=1;rounded=0;orthogonalLoop=1;jettySize=auto;html=1;fontSize=12;startSize=8;endSize=8;" edge="1" parent="1" source="hsLVqGyKf4GTfWMnWfSy-245" target="hsLVqGyKf4GTfWMnWfSy-247">
          <mxGeometry relative="1" as="geometry" />
        </mxCell>
        <mxCell id="hsLVqGyKf4GTfWMnWfSy-245" value="n1,n2,n3&lt;br&gt;입력" style="shape=parallelogram;html=1;strokeWidth=2;perimeter=parallelogramPerimeter;whiteSpace=wrap;rounded=1;arcSize=12;size=0.23;" vertex="1" parent="1">
          <mxGeometry x="3082.5" y="1350" width="135" height="60" as="geometry" />
        </mxCell>
        <mxCell id="hsLVqGyKf4GTfWMnWfSy-246" value="" style="edgeStyle=none;curved=1;rounded=0;orthogonalLoop=1;jettySize=auto;html=1;fontSize=12;startSize=8;endSize=8;" edge="1" parent="1" source="hsLVqGyKf4GTfWMnWfSy-247" target="hsLVqGyKf4GTfWMnWfSy-249">
          <mxGeometry relative="1" as="geometry" />
        </mxCell>
        <mxCell id="hsLVqGyKf4GTfWMnWfSy-247" value="max = n1" style="whiteSpace=wrap;html=1;strokeWidth=2;rounded=1;arcSize=12;" vertex="1" parent="1">
          <mxGeometry x="3092.5" y="1460" width="120" height="60" as="geometry" />
        </mxCell>
        <mxCell id="hsLVqGyKf4GTfWMnWfSy-248" value="" style="edgeStyle=none;curved=1;rounded=0;orthogonalLoop=1;jettySize=auto;html=1;fontSize=12;startSize=8;endSize=8;" edge="1" parent="1" source="hsLVqGyKf4GTfWMnWfSy-249" target="hsLVqGyKf4GTfWMnWfSy-251">
          <mxGeometry relative="1" as="geometry" />
        </mxCell>
        <mxCell id="hsLVqGyKf4GTfWMnWfSy-249" value="max&amp;lt;n2" style="rhombus;whiteSpace=wrap;html=1;strokeWidth=2;rounded=1;arcSize=12;" vertex="1" parent="1">
          <mxGeometry x="3112.5" y="1580" width="80" height="80" as="geometry" />
        </mxCell>
        <mxCell id="hsLVqGyKf4GTfWMnWfSy-250" value="" style="edgeStyle=none;curved=1;rounded=0;orthogonalLoop=1;jettySize=auto;html=1;fontSize=12;startSize=8;endSize=8;" edge="1" parent="1" source="hsLVqGyKf4GTfWMnWfSy-251" target="hsLVqGyKf4GTfWMnWfSy-254">
          <mxGeometry relative="1" as="geometry" />
        </mxCell>
        <mxCell id="hsLVqGyKf4GTfWMnWfSy-251" value="max = n2" style="whiteSpace=wrap;html=1;strokeWidth=2;rounded=1;arcSize=12;" vertex="1" parent="1">
          <mxGeometry x="3092.5" y="1710" width="120" height="60" as="geometry" />
        </mxCell>
        <mxCell id="hsLVqGyKf4GTfWMnWfSy-252" value="YES" style="text;html=1;align=center;verticalAlign=middle;resizable=0;points=[];autosize=1;strokeColor=none;fillColor=none;fontSize=16;" vertex="1" parent="1">
          <mxGeometry x="3147.5" y="1660" width="60" height="30" as="geometry" />
        </mxCell>
        <mxCell id="hsLVqGyKf4GTfWMnWfSy-253" value="" style="edgeStyle=none;curved=1;rounded=0;orthogonalLoop=1;jettySize=auto;html=1;fontSize=12;startSize=8;endSize=8;" edge="1" parent="1" source="hsLVqGyKf4GTfWMnWfSy-254" target="hsLVqGyKf4GTfWMnWfSy-256">
          <mxGeometry relative="1" as="geometry" />
        </mxCell>
        <mxCell id="hsLVqGyKf4GTfWMnWfSy-254" value="max&amp;lt;n3" style="rhombus;whiteSpace=wrap;html=1;strokeWidth=2;rounded=1;arcSize=12;" vertex="1" parent="1">
          <mxGeometry x="3112.5" y="1820" width="80" height="80" as="geometry" />
        </mxCell>
        <mxCell id="hsLVqGyKf4GTfWMnWfSy-255" value="" style="edgeStyle=none;curved=1;rounded=0;orthogonalLoop=1;jettySize=auto;html=1;fontSize=12;startSize=8;endSize=8;" edge="1" parent="1" source="hsLVqGyKf4GTfWMnWfSy-256" target="hsLVqGyKf4GTfWMnWfSy-261">
          <mxGeometry relative="1" as="geometry" />
        </mxCell>
        <mxCell id="hsLVqGyKf4GTfWMnWfSy-256" value="max=n3" style="whiteSpace=wrap;html=1;strokeWidth=2;rounded=1;arcSize=12;" vertex="1" parent="1">
          <mxGeometry x="3092.5" y="1950" width="120" height="60" as="geometry" />
        </mxCell>
        <mxCell id="hsLVqGyKf4GTfWMnWfSy-257" value="YES" style="text;html=1;align=center;verticalAlign=middle;resizable=0;points=[];autosize=1;strokeColor=none;fillColor=none;fontSize=16;" vertex="1" parent="1">
          <mxGeometry x="3152.5" y="1900" width="60" height="30" as="geometry" />
        </mxCell>
        <mxCell id="hsLVqGyKf4GTfWMnWfSy-258" value="" style="edgeStyle=none;curved=0;rounded=0;orthogonalLoop=1;jettySize=auto;html=1;fontSize=12;startSize=8;endSize=8;exitX=0;exitY=0.5;exitDx=0;exitDy=0;entryX=0;entryY=0.5;entryDx=0;entryDy=0;" edge="1" parent="1" source="hsLVqGyKf4GTfWMnWfSy-249" target="hsLVqGyKf4GTfWMnWfSy-254">
          <mxGeometry relative="1" as="geometry">
            <mxPoint x="3163" y="1670" as="sourcePoint" />
            <mxPoint x="3163" y="1720" as="targetPoint" />
            <Array as="points">
              <mxPoint x="3000" y="1620" />
              <mxPoint x="3000" y="1860" />
            </Array>
          </mxGeometry>
        </mxCell>
        <mxCell id="hsLVqGyKf4GTfWMnWfSy-259" value="NO" style="text;html=1;align=center;verticalAlign=middle;resizable=0;points=[];autosize=1;strokeColor=none;fillColor=none;fontSize=16;" vertex="1" parent="1">
          <mxGeometry x="3067.5" y="1591" width="50" height="30" as="geometry" />
        </mxCell>
        <mxCell id="hsLVqGyKf4GTfWMnWfSy-260" value="" style="edgeStyle=none;curved=1;rounded=0;orthogonalLoop=1;jettySize=auto;html=1;fontSize=12;startSize=8;endSize=8;" edge="1" parent="1" source="hsLVqGyKf4GTfWMnWfSy-261" target="hsLVqGyKf4GTfWMnWfSy-243">
          <mxGeometry relative="1" as="geometry" />
        </mxCell>
        <mxCell id="hsLVqGyKf4GTfWMnWfSy-261" value="max 출력" style="shape=parallelogram;perimeter=parallelogramPerimeter;whiteSpace=wrap;html=1;fixedSize=1;strokeWidth=2;rounded=1;arcSize=12;" vertex="1" parent="1">
          <mxGeometry x="3092.5" y="2070" width="120" height="60" as="geometry" />
        </mxCell>
        <mxCell id="hsLVqGyKf4GTfWMnWfSy-262" style="edgeStyle=none;curved=1;rounded=0;orthogonalLoop=1;jettySize=auto;html=1;exitX=1;exitY=0.75;exitDx=0;exitDy=0;fontSize=12;startSize=8;endSize=8;" edge="1" parent="1" source="hsLVqGyKf4GTfWMnWfSy-261" target="hsLVqGyKf4GTfWMnWfSy-261">
          <mxGeometry relative="1" as="geometry" />
        </mxCell>
        <mxCell id="hsLVqGyKf4GTfWMnWfSy-263" value="" style="edgeStyle=none;curved=0;rounded=0;orthogonalLoop=1;jettySize=auto;html=1;fontSize=12;startSize=8;endSize=8;exitX=1;exitY=0.5;exitDx=0;exitDy=0;entryX=0.898;entryY=0.584;entryDx=0;entryDy=0;entryPerimeter=0;" edge="1" parent="1">
          <mxGeometry relative="1" as="geometry">
            <mxPoint x="3190" y="1860" as="sourcePoint" />
            <mxPoint x="3197.76" y="2105.04" as="targetPoint" />
            <Array as="points">
              <mxPoint x="3340" y="1860" />
              <mxPoint x="3340" y="2105" />
            </Array>
          </mxGeometry>
        </mxCell>
        <mxCell id="hsLVqGyKf4GTfWMnWfSy-264" value="NO" style="text;html=1;align=center;verticalAlign=middle;resizable=0;points=[];autosize=1;strokeColor=none;fillColor=none;fontSize=16;" vertex="1" parent="1">
          <mxGeometry x="3185" y="1830" width="50" height="30" as="geometry" />
        </mxCell>
        <mxCell id="hsLVqGyKf4GTfWMnWfSy-266" value="" style="edgeStyle=orthogonalEdgeStyle;rounded=0;orthogonalLoop=1;jettySize=auto;html=1;entryX=0.5;entryY=0;entryDx=0;entryDy=0;" edge="1" source="hsLVqGyKf4GTfWMnWfSy-273" target="hsLVqGyKf4GTfWMnWfSy-291" parent="1">
          <mxGeometry relative="1" as="geometry">
            <mxPoint x="4636.238095238095" y="245" as="targetPoint" />
          </mxGeometry>
        </mxCell>
        <mxCell id="hsLVqGyKf4GTfWMnWfSy-273" value="시작" style="rounded=1;whiteSpace=wrap;html=1;arcSize=50;" vertex="1" parent="1">
          <mxGeometry x="4575" y="145" width="120" height="80" as="geometry" />
        </mxCell>
        <mxCell id="hsLVqGyKf4GTfWMnWfSy-274" value="끝" style="rounded=1;whiteSpace=wrap;html=1;arcSize=50;" vertex="1" parent="1">
          <mxGeometry x="4575" y="780" width="120" height="80" as="geometry" />
        </mxCell>
        <mxCell id="hsLVqGyKf4GTfWMnWfSy-275" value="frame" style="shape=umlFrame;whiteSpace=wrap;html=1;pointerEvents=0;" vertex="1" parent="1">
          <mxGeometry x="4270" y="125" width="660" height="920" as="geometry" />
        </mxCell>
        <mxCell id="hsLVqGyKf4GTfWMnWfSy-290" value="&lt;div style=&quot;background-color:#2f2f2f;padding:0px 0px 0px 2px;&quot;&gt;&lt;div style=&quot;color:#cccccc;background-color:#2f2f2f;font-family:&amp;quot;Consolas&amp;quot;;font-size:12pt;white-space:pre;&quot;&gt;&lt;p style=&quot;margin:0;&quot;&gt;&lt;span style=&quot;color:#d9e8f7;&quot;&gt;&lt;span style=&quot;white-space: pre;&quot;&gt;&amp;nbsp;&amp;nbsp;&amp;nbsp;&amp;nbsp;&lt;/span&gt;&lt;span style=&quot;white-space: pre;&quot;&gt;&amp;nbsp;&amp;nbsp;&amp;nbsp;&amp;nbsp;&lt;/span&gt;&lt;/span&gt;&lt;span style=&quot;color:#ff8080;&quot;&gt;// 문제&lt;/span&gt;&lt;/p&gt;&lt;p style=&quot;margin:0;&quot;&gt;&lt;span style=&quot;color:#d9e8f7;&quot;&gt;&lt;span style=&quot;white-space: pre;&quot;&gt;&amp;nbsp;&amp;nbsp;&amp;nbsp;&amp;nbsp;&lt;/span&gt;&lt;span style=&quot;white-space: pre;&quot;&gt;&amp;nbsp;&amp;nbsp;&amp;nbsp;&amp;nbsp;&lt;/span&gt;&lt;/span&gt;&lt;span style=&quot;color:#ff8080;&quot;&gt;// 세개의 정수를 입력받아 해당수의 합과 평균을 출력&lt;/span&gt;&lt;/p&gt;&lt;/div&gt;&lt;/div&gt;" style="text;whiteSpace=wrap;html=1;" vertex="1" parent="1">
          <mxGeometry x="4366" y="50" width="520" height="60" as="geometry" />
        </mxCell>
        <mxCell id="hsLVqGyKf4GTfWMnWfSy-295" value="" style="edgeStyle=orthogonalEdgeStyle;rounded=0;orthogonalLoop=1;jettySize=auto;html=1;" edge="1" parent="1" source="hsLVqGyKf4GTfWMnWfSy-291" target="hsLVqGyKf4GTfWMnWfSy-292">
          <mxGeometry relative="1" as="geometry" />
        </mxCell>
        <mxCell id="hsLVqGyKf4GTfWMnWfSy-291" value="세개의 정수 값&lt;div&gt;num1, num2, num3&lt;br&gt;&amp;nbsp;입력&lt;/div&gt;" style="shape=parallelogram;html=1;strokeWidth=2;perimeter=parallelogramPerimeter;whiteSpace=wrap;rounded=1;arcSize=12;size=0.23;" vertex="1" parent="1">
          <mxGeometry x="4560" y="293" width="150" height="80" as="geometry" />
        </mxCell>
        <mxCell id="hsLVqGyKf4GTfWMnWfSy-296" value="" style="edgeStyle=orthogonalEdgeStyle;rounded=0;orthogonalLoop=1;jettySize=auto;html=1;" edge="1" parent="1" source="hsLVqGyKf4GTfWMnWfSy-292" target="hsLVqGyKf4GTfWMnWfSy-293">
          <mxGeometry relative="1" as="geometry" />
        </mxCell>
        <mxCell id="hsLVqGyKf4GTfWMnWfSy-292" value="sum = n1+n2+n3" style="rounded=1;whiteSpace=wrap;html=1;" vertex="1" parent="1">
          <mxGeometry x="4575" y="430" width="120" height="60" as="geometry" />
        </mxCell>
        <mxCell id="hsLVqGyKf4GTfWMnWfSy-297" value="" style="edgeStyle=orthogonalEdgeStyle;rounded=0;orthogonalLoop=1;jettySize=auto;html=1;" edge="1" parent="1" source="hsLVqGyKf4GTfWMnWfSy-293" target="hsLVqGyKf4GTfWMnWfSy-294">
          <mxGeometry relative="1" as="geometry" />
        </mxCell>
        <mxCell id="hsLVqGyKf4GTfWMnWfSy-293" value="avg = sum/3" style="rounded=1;whiteSpace=wrap;html=1;" vertex="1" parent="1">
          <mxGeometry x="4575" y="550" width="120" height="60" as="geometry" />
        </mxCell>
        <mxCell id="hsLVqGyKf4GTfWMnWfSy-298" value="" style="edgeStyle=orthogonalEdgeStyle;rounded=0;orthogonalLoop=1;jettySize=auto;html=1;" edge="1" parent="1" source="hsLVqGyKf4GTfWMnWfSy-294" target="hsLVqGyKf4GTfWMnWfSy-274">
          <mxGeometry relative="1" as="geometry" />
        </mxCell>
        <mxCell id="hsLVqGyKf4GTfWMnWfSy-294" value="총합 : sum&lt;div&gt;평균 : avg&lt;/div&gt;" style="shape=parallelogram;html=1;strokeWidth=2;perimeter=parallelogramPerimeter;whiteSpace=wrap;rounded=1;arcSize=12;size=0.23;" vertex="1" parent="1">
          <mxGeometry x="4560" y="650" width="150" height="80" as="geometry" />
        </mxCell>
        <mxCell id="hsLVqGyKf4GTfWMnWfSy-410" value="회원가입" style="shape=umlFrame;whiteSpace=wrap;html=1;pointerEvents=0;width=100;height=30;" vertex="1" parent="1">
          <mxGeometry x="-40" y="1080" width="660" height="1930" as="geometry" />
        </mxCell>
        <mxCell id="hsLVqGyKf4GTfWMnWfSy-411" value="" style="edgeStyle=none;curved=1;rounded=0;orthogonalLoop=1;jettySize=auto;html=1;fontSize=12;startSize=8;endSize=8;" edge="1" parent="1" source="hsLVqGyKf4GTfWMnWfSy-412" target="hsLVqGyKf4GTfWMnWfSy-415">
          <mxGeometry relative="1" as="geometry" />
        </mxCell>
        <mxCell id="hsLVqGyKf4GTfWMnWfSy-412" value="시작" style="strokeWidth=2;html=1;shape=mxgraph.flowchart.terminator;whiteSpace=wrap;" vertex="1" parent="1">
          <mxGeometry x="222.5" y="1110" width="100" height="60" as="geometry" />
        </mxCell>
        <mxCell id="hsLVqGyKf4GTfWMnWfSy-413" value="끝" style="strokeWidth=2;html=1;shape=mxgraph.flowchart.terminator;whiteSpace=wrap;" vertex="1" parent="1">
          <mxGeometry x="235" y="2900" width="100" height="60" as="geometry" />
        </mxCell>
        <mxCell id="hsLVqGyKf4GTfWMnWfSy-414" value="" style="edgeStyle=none;curved=1;rounded=0;orthogonalLoop=1;jettySize=auto;html=1;fontSize=12;startSize=8;endSize=8;" edge="1" parent="1" source="hsLVqGyKf4GTfWMnWfSy-415" target="hsLVqGyKf4GTfWMnWfSy-417">
          <mxGeometry relative="1" as="geometry" />
        </mxCell>
        <mxCell id="hsLVqGyKf4GTfWMnWfSy-415" value="회원가입 폼" style="shape=document;whiteSpace=wrap;html=1;boundedLbl=1;strokeWidth=2;" vertex="1" parent="1">
          <mxGeometry x="215" y="1220" width="120" height="80" as="geometry" />
        </mxCell>
        <mxCell id="hsLVqGyKf4GTfWMnWfSy-416" value="" style="edgeStyle=none;curved=1;rounded=0;orthogonalLoop=1;jettySize=auto;html=1;fontSize=12;startSize=8;endSize=8;" edge="1" parent="1" source="hsLVqGyKf4GTfWMnWfSy-417" target="hsLVqGyKf4GTfWMnWfSy-419">
          <mxGeometry relative="1" as="geometry" />
        </mxCell>
        <mxCell id="hsLVqGyKf4GTfWMnWfSy-417" value="이메일 입력" style="shape=parallelogram;perimeter=parallelogramPerimeter;whiteSpace=wrap;html=1;fixedSize=1;strokeWidth=2;" vertex="1" parent="1">
          <mxGeometry x="217.5" y="1350" width="120" height="60" as="geometry" />
        </mxCell>
        <mxCell id="hsLVqGyKf4GTfWMnWfSy-418" value="" style="edgeStyle=none;curved=1;rounded=0;orthogonalLoop=1;jettySize=auto;html=1;fontSize=12;startSize=8;endSize=8;" edge="1" parent="1" source="hsLVqGyKf4GTfWMnWfSy-419" target="hsLVqGyKf4GTfWMnWfSy-421">
          <mxGeometry relative="1" as="geometry" />
        </mxCell>
        <mxCell id="hsLVqGyKf4GTfWMnWfSy-419" value="인증 버튼 클릭" style="shape=parallelogram;perimeter=parallelogramPerimeter;whiteSpace=wrap;html=1;fixedSize=1;strokeWidth=2;" vertex="1" parent="1">
          <mxGeometry x="217.5" y="1460" width="120" height="60" as="geometry" />
        </mxCell>
        <mxCell id="hsLVqGyKf4GTfWMnWfSy-420" value="" style="edgeStyle=none;curved=1;rounded=0;orthogonalLoop=1;jettySize=auto;html=1;fontSize=12;startSize=8;endSize=8;" edge="1" parent="1" source="hsLVqGyKf4GTfWMnWfSy-421" target="hsLVqGyKf4GTfWMnWfSy-422">
          <mxGeometry relative="1" as="geometry" />
        </mxCell>
        <mxCell id="hsLVqGyKf4GTfWMnWfSy-421" value="&lt;div&gt;&lt;span style=&quot;background-color: initial;&quot;&gt;DB 조회&lt;/span&gt;&lt;br&gt;&lt;/div&gt;&lt;div&gt;&lt;span style=&quot;background-color: initial;&quot;&gt;(입력된 이메일)&lt;/span&gt;&lt;/div&gt;" style="whiteSpace=wrap;html=1;strokeWidth=2;" vertex="1" parent="1">
          <mxGeometry x="217.5" y="1570" width="120" height="60" as="geometry" />
        </mxCell>
        <mxCell id="hsLVqGyKf4GTfWMnWfSy-422" value="tbl_user" style="strokeWidth=2;html=1;shape=mxgraph.flowchart.database;whiteSpace=wrap;" vertex="1" parent="1">
          <mxGeometry x="410" y="1570" width="60" height="60" as="geometry" />
        </mxCell>
        <mxCell id="hsLVqGyKf4GTfWMnWfSy-423" value="" style="edgeStyle=none;curved=1;rounded=0;orthogonalLoop=1;jettySize=auto;html=1;fontSize=12;startSize=8;endSize=8;" edge="1" parent="1" source="hsLVqGyKf4GTfWMnWfSy-424" target="hsLVqGyKf4GTfWMnWfSy-433">
          <mxGeometry relative="1" as="geometry" />
        </mxCell>
        <mxCell id="hsLVqGyKf4GTfWMnWfSy-424" value="동일계정이&amp;nbsp;&lt;div&gt;존재하는지&lt;/div&gt;" style="rhombus;whiteSpace=wrap;html=1;strokeWidth=2;" vertex="1" parent="1">
          <mxGeometry x="237.5" y="1700" width="80" height="80" as="geometry" />
        </mxCell>
        <mxCell id="hsLVqGyKf4GTfWMnWfSy-425" value="" style="edgeStyle=none;curved=0;rounded=0;orthogonalLoop=1;jettySize=auto;html=1;fontSize=12;startSize=8;endSize=8;exitX=0.5;exitY=1;exitDx=0;exitDy=0;exitPerimeter=0;entryX=1;entryY=0.5;entryDx=0;entryDy=0;" edge="1" parent="1" source="hsLVqGyKf4GTfWMnWfSy-422" target="hsLVqGyKf4GTfWMnWfSy-424">
          <mxGeometry relative="1" as="geometry">
            <mxPoint x="348" y="1610" as="sourcePoint" />
            <mxPoint x="420" y="1610" as="targetPoint" />
            <Array as="points">
              <mxPoint x="440" y="1740" />
            </Array>
          </mxGeometry>
        </mxCell>
        <mxCell id="hsLVqGyKf4GTfWMnWfSy-426" value="&lt;p style=&quot;margin:0px;margin-top:4px;text-align:center;&quot;&gt;&lt;b&gt;MESSAGE&lt;/b&gt;&lt;/p&gt;&lt;hr size=&quot;1&quot; style=&quot;border-style:solid;&quot;&gt;&lt;div style=&quot;height:2px;&quot;&gt;&amp;nbsp;동일계정이 존재합니다.&lt;/div&gt;" style="verticalAlign=top;align=left;overflow=fill;html=1;whiteSpace=wrap;" vertex="1" parent="1">
          <mxGeometry y="1680" width="140" height="60" as="geometry" />
        </mxCell>
        <mxCell id="hsLVqGyKf4GTfWMnWfSy-427" value="" style="edgeStyle=none;curved=0;rounded=0;orthogonalLoop=1;jettySize=auto;html=1;fontSize=12;startSize=8;endSize=8;exitX=0;exitY=0.5;exitDx=0;exitDy=0;entryX=0;entryY=0.5;entryDx=0;entryDy=0;" edge="1" parent="1" source="hsLVqGyKf4GTfWMnWfSy-424" target="hsLVqGyKf4GTfWMnWfSy-417">
          <mxGeometry relative="1" as="geometry">
            <mxPoint x="288" y="1530" as="sourcePoint" />
            <mxPoint x="288" y="1580" as="targetPoint" />
            <Array as="points">
              <mxPoint x="150" y="1740" />
              <mxPoint x="150" y="1380" />
            </Array>
          </mxGeometry>
        </mxCell>
        <mxCell id="hsLVqGyKf4GTfWMnWfSy-428" value="YES" style="text;html=1;align=center;verticalAlign=middle;resizable=0;points=[];autosize=1;strokeColor=none;fillColor=none;fontSize=16;" vertex="1" parent="1">
          <mxGeometry x="175" y="1710" width="60" height="30" as="geometry" />
        </mxCell>
        <mxCell id="hsLVqGyKf4GTfWMnWfSy-429" value="NO" style="text;html=1;align=center;verticalAlign=middle;resizable=0;points=[];autosize=1;strokeColor=none;fillColor=none;fontSize=16;" vertex="1" parent="1">
          <mxGeometry x="290" y="1771" width="50" height="30" as="geometry" />
        </mxCell>
        <mxCell id="hsLVqGyKf4GTfWMnWfSy-430" value="" style="edgeStyle=none;curved=1;rounded=0;orthogonalLoop=1;jettySize=auto;html=1;fontSize=12;startSize=8;endSize=8;" edge="1" parent="1" source="hsLVqGyKf4GTfWMnWfSy-431" target="hsLVqGyKf4GTfWMnWfSy-440">
          <mxGeometry relative="1" as="geometry" />
        </mxCell>
        <mxCell id="hsLVqGyKf4GTfWMnWfSy-431" value="인증코드가&lt;div&gt;올바른지&lt;/div&gt;" style="rhombus;whiteSpace=wrap;html=1;strokeWidth=2;" vertex="1" parent="1">
          <mxGeometry x="240" y="2060" width="80" height="80" as="geometry" />
        </mxCell>
        <mxCell id="hsLVqGyKf4GTfWMnWfSy-432" value="" style="edgeStyle=none;curved=1;rounded=0;orthogonalLoop=1;jettySize=auto;html=1;fontSize=12;startSize=8;endSize=8;" edge="1" parent="1" source="hsLVqGyKf4GTfWMnWfSy-433" target="hsLVqGyKf4GTfWMnWfSy-435">
          <mxGeometry relative="1" as="geometry" />
        </mxCell>
        <mxCell id="hsLVqGyKf4GTfWMnWfSy-433" value="이메일 인증 코드 발송&lt;div&gt;(외부 API)&lt;/div&gt;" style="whiteSpace=wrap;html=1;strokeWidth=2;" vertex="1" parent="1">
          <mxGeometry x="217.5" y="1820" width="120" height="60" as="geometry" />
        </mxCell>
        <mxCell id="hsLVqGyKf4GTfWMnWfSy-434" value="" style="edgeStyle=none;curved=1;rounded=0;orthogonalLoop=1;jettySize=auto;html=1;fontSize=12;startSize=8;endSize=8;" edge="1" parent="1" source="hsLVqGyKf4GTfWMnWfSy-435" target="hsLVqGyKf4GTfWMnWfSy-431">
          <mxGeometry relative="1" as="geometry" />
        </mxCell>
        <mxCell id="hsLVqGyKf4GTfWMnWfSy-435" value="인증코드 입력" style="shape=parallelogram;perimeter=parallelogramPerimeter;whiteSpace=wrap;html=1;fixedSize=1;strokeWidth=2;" vertex="1" parent="1">
          <mxGeometry x="217.5" y="1940" width="120" height="60" as="geometry" />
        </mxCell>
        <mxCell id="hsLVqGyKf4GTfWMnWfSy-436" value="" style="edgeStyle=none;curved=0;rounded=0;orthogonalLoop=1;jettySize=auto;html=1;fontSize=12;startSize=8;endSize=8;exitX=1;exitY=0.5;exitDx=0;exitDy=0;entryX=1;entryY=0.5;entryDx=0;entryDy=0;" edge="1" parent="1" source="hsLVqGyKf4GTfWMnWfSy-431" target="hsLVqGyKf4GTfWMnWfSy-417">
          <mxGeometry relative="1" as="geometry">
            <mxPoint x="288" y="2010" as="sourcePoint" />
            <mxPoint x="289" y="2071" as="targetPoint" />
            <Array as="points">
              <mxPoint x="530" y="2100" />
              <mxPoint x="530" y="1380" />
            </Array>
          </mxGeometry>
        </mxCell>
        <mxCell id="hsLVqGyKf4GTfWMnWfSy-437" value="NO" style="text;html=1;align=center;verticalAlign=middle;resizable=0;points=[];autosize=1;strokeColor=none;fillColor=none;fontSize=16;" vertex="1" parent="1">
          <mxGeometry x="315" y="2071" width="50" height="30" as="geometry" />
        </mxCell>
        <mxCell id="hsLVqGyKf4GTfWMnWfSy-438" value="" style="edgeStyle=none;curved=1;rounded=0;orthogonalLoop=1;jettySize=auto;html=1;fontSize=12;startSize=8;endSize=8;" edge="1" parent="1" source="hsLVqGyKf4GTfWMnWfSy-440" target="hsLVqGyKf4GTfWMnWfSy-443">
          <mxGeometry relative="1" as="geometry" />
        </mxCell>
        <mxCell id="hsLVqGyKf4GTfWMnWfSy-439" value="" style="edgeStyle=none;curved=1;rounded=0;orthogonalLoop=1;jettySize=auto;html=1;fontSize=12;startSize=8;endSize=8;" edge="1" parent="1" source="hsLVqGyKf4GTfWMnWfSy-440" target="hsLVqGyKf4GTfWMnWfSy-443">
          <mxGeometry relative="1" as="geometry" />
        </mxCell>
        <mxCell id="hsLVqGyKf4GTfWMnWfSy-440" value="나머지 개인정보&amp;nbsp;&lt;div&gt;입력&lt;/div&gt;" style="shape=parallelogram;perimeter=parallelogramPerimeter;whiteSpace=wrap;html=1;fixedSize=1;strokeWidth=2;" vertex="1" parent="1">
          <mxGeometry x="220" y="2210" width="120" height="60" as="geometry" />
        </mxCell>
        <mxCell id="hsLVqGyKf4GTfWMnWfSy-441" value="YES" style="text;html=1;align=center;verticalAlign=middle;resizable=0;points=[];autosize=1;strokeColor=none;fillColor=none;fontSize=16;" vertex="1" parent="1">
          <mxGeometry x="280" y="2140" width="60" height="30" as="geometry" />
        </mxCell>
        <mxCell id="hsLVqGyKf4GTfWMnWfSy-442" value="" style="edgeStyle=none;curved=1;rounded=0;orthogonalLoop=1;jettySize=auto;html=1;fontSize=12;startSize=8;endSize=8;" edge="1" parent="1" source="hsLVqGyKf4GTfWMnWfSy-443" target="hsLVqGyKf4GTfWMnWfSy-445">
          <mxGeometry relative="1" as="geometry" />
        </mxCell>
        <mxCell id="hsLVqGyKf4GTfWMnWfSy-443" value="유효성 검사" style="whiteSpace=wrap;html=1;strokeWidth=2;" vertex="1" parent="1">
          <mxGeometry x="220" y="2320" width="120" height="60" as="geometry" />
        </mxCell>
        <mxCell id="hsLVqGyKf4GTfWMnWfSy-444" value="" style="edgeStyle=none;curved=1;rounded=0;orthogonalLoop=1;jettySize=auto;html=1;fontSize=12;startSize=8;endSize=8;" edge="1" parent="1" source="hsLVqGyKf4GTfWMnWfSy-445" target="hsLVqGyKf4GTfWMnWfSy-449">
          <mxGeometry relative="1" as="geometry" />
        </mxCell>
        <mxCell id="hsLVqGyKf4GTfWMnWfSy-445" value="입력된&lt;div&gt;데이터가&lt;/div&gt;&lt;div&gt;올바른가&lt;/div&gt;" style="rhombus;whiteSpace=wrap;html=1;strokeWidth=2;" vertex="1" parent="1">
          <mxGeometry x="240" y="2430" width="80" height="80" as="geometry" />
        </mxCell>
        <mxCell id="hsLVqGyKf4GTfWMnWfSy-446" value="" style="edgeStyle=none;curved=0;rounded=0;orthogonalLoop=1;jettySize=auto;html=1;fontSize=12;startSize=8;endSize=8;exitX=0;exitY=0.5;exitDx=0;exitDy=0;entryX=0;entryY=0.25;entryDx=0;entryDy=0;" edge="1" parent="1" source="hsLVqGyKf4GTfWMnWfSy-445" target="hsLVqGyKf4GTfWMnWfSy-440">
          <mxGeometry relative="1" as="geometry">
            <mxPoint x="290" y="2390" as="sourcePoint" />
            <mxPoint x="290" y="2440" as="targetPoint" />
            <Array as="points">
              <mxPoint x="140" y="2470" />
              <mxPoint x="140" y="2228" />
            </Array>
          </mxGeometry>
        </mxCell>
        <mxCell id="hsLVqGyKf4GTfWMnWfSy-447" value="NO" style="text;html=1;align=center;verticalAlign=middle;resizable=0;points=[];autosize=1;strokeColor=none;fillColor=none;fontSize=16;" vertex="1" parent="1">
          <mxGeometry x="187.5" y="2431" width="50" height="30" as="geometry" />
        </mxCell>
        <mxCell id="hsLVqGyKf4GTfWMnWfSy-448" value="" style="edgeStyle=none;curved=1;rounded=0;orthogonalLoop=1;jettySize=auto;html=1;fontSize=12;startSize=8;endSize=8;" edge="1" parent="1" source="hsLVqGyKf4GTfWMnWfSy-449" target="hsLVqGyKf4GTfWMnWfSy-450">
          <mxGeometry relative="1" as="geometry" />
        </mxCell>
        <mxCell id="hsLVqGyKf4GTfWMnWfSy-449" value="DB 회원정보 저장" style="whiteSpace=wrap;html=1;strokeWidth=2;" vertex="1" parent="1">
          <mxGeometry x="220" y="2560" width="120" height="60" as="geometry" />
        </mxCell>
        <mxCell id="hsLVqGyKf4GTfWMnWfSy-450" value="tbl_user" style="strokeWidth=2;html=1;shape=mxgraph.flowchart.database;whiteSpace=wrap;" vertex="1" parent="1">
          <mxGeometry x="420" y="2560" width="60" height="60" as="geometry" />
        </mxCell>
        <mxCell id="hsLVqGyKf4GTfWMnWfSy-451" value="" style="edgeStyle=none;curved=1;rounded=0;orthogonalLoop=1;jettySize=auto;html=1;fontSize=12;startSize=8;endSize=8;" edge="1" parent="1" source="hsLVqGyKf4GTfWMnWfSy-452" target="hsLVqGyKf4GTfWMnWfSy-413">
          <mxGeometry relative="1" as="geometry" />
        </mxCell>
        <mxCell id="hsLVqGyKf4GTfWMnWfSy-452" value="로그인 페이지로 전환" style="whiteSpace=wrap;html=1;strokeWidth=2;" vertex="1" parent="1">
          <mxGeometry x="224" y="2763" width="120" height="60" as="geometry" />
        </mxCell>
        <mxCell id="hsLVqGyKf4GTfWMnWfSy-453" value="" style="edgeStyle=none;curved=0;rounded=0;orthogonalLoop=1;jettySize=auto;html=1;fontSize=12;startSize=8;endSize=8;exitX=0.5;exitY=1;exitDx=0;exitDy=0;exitPerimeter=0;entryX=1;entryY=0.5;entryDx=0;entryDy=0;" edge="1" parent="1" source="hsLVqGyKf4GTfWMnWfSy-450" target="hsLVqGyKf4GTfWMnWfSy-452">
          <mxGeometry relative="1" as="geometry">
            <mxPoint x="290" y="2520" as="sourcePoint" />
            <mxPoint x="290" y="2570" as="targetPoint" />
            <Array as="points">
              <mxPoint x="452" y="2794" />
            </Array>
          </mxGeometry>
        </mxCell>
        <mxCell id="hsLVqGyKf4GTfWMnWfSy-454" value="&lt;p style=&quot;margin:0px;margin-top:4px;text-align:center;&quot;&gt;&lt;b&gt;MESSAGE&lt;/b&gt;&lt;/p&gt;&lt;hr size=&quot;1&quot; style=&quot;border-style:solid;&quot;&gt;&lt;div style=&quot;height:2px;&quot;&gt;회원가입을 완료했습니다&lt;/div&gt;" style="verticalAlign=top;align=left;overflow=fill;html=1;whiteSpace=wrap;" vertex="1" parent="1">
          <mxGeometry x="460" y="2720" width="140" height="60" as="geometry" />
        </mxCell>
        <mxCell id="hsLVqGyKf4GTfWMnWfSy-455" value="&lt;p style=&quot;margin:0px;margin-top:4px;text-align:center;&quot;&gt;&lt;b&gt;MESSAGE&lt;/b&gt;&lt;/p&gt;&lt;hr size=&quot;1&quot; style=&quot;border-style:solid;&quot;&gt;&lt;div style=&quot;height:2px;&quot;&gt;&amp;nbsp;PW 의 복잡도 여부 등등&lt;/div&gt;&lt;div style=&quot;height:2px;&quot;&gt;&lt;br&gt;&lt;/div&gt;" style="verticalAlign=top;align=left;overflow=fill;html=1;whiteSpace=wrap;" vertex="1" parent="1">
          <mxGeometry x="-10" y="2390" width="140" height="60" as="geometry" />
        </mxCell>
        <mxCell id="hsLVqGyKf4GTfWMnWfSy-456" value="&lt;div style=&quot;background-color:#2f2f2f;padding:0px 0px 0px 2px;&quot;&gt;&lt;div style=&quot;color:#cccccc;background-color:#2f2f2f;font-family:&amp;quot;Consolas&amp;quot;;font-size:14pt;white-space:pre;&quot;&gt;&lt;p style=&quot;margin:0;&quot;&gt;&lt;span style=&quot;color:#d9e8f7;&quot;&gt;&lt;span style=&quot;white-space: pre;&quot;&gt;&amp;nbsp;&amp;nbsp;&amp;nbsp;&amp;nbsp;&lt;/span&gt;&lt;span style=&quot;white-space: pre;&quot;&gt;&amp;nbsp;&amp;nbsp;&amp;nbsp;&amp;nbsp;&lt;/span&gt;&lt;/span&gt;&lt;span style=&quot;color:#ff8080;&quot;&gt;//시험 점수를 입력받아&lt;/span&gt;&lt;/p&gt;&lt;p style=&quot;margin:0;&quot;&gt;&lt;span style=&quot;color:#d9e8f7;&quot;&gt;&lt;span style=&quot;white-space: pre;&quot;&gt;&amp;nbsp;&amp;nbsp;&amp;nbsp;&amp;nbsp;&lt;/span&gt;&lt;span style=&quot;white-space: pre;&quot;&gt;&amp;nbsp;&amp;nbsp;&amp;nbsp;&amp;nbsp;&lt;/span&gt;&lt;/span&gt;&lt;span style=&quot;color:#ff8080;&quot;&gt;//90 ~ 100점은 A,&lt;/span&gt;&lt;/p&gt;&lt;p style=&quot;margin:0;&quot;&gt;&lt;span style=&quot;color:#d9e8f7;&quot;&gt;&lt;span style=&quot;white-space: pre;&quot;&gt;&amp;nbsp;&amp;nbsp;&amp;nbsp;&amp;nbsp;&lt;/span&gt;&lt;span style=&quot;white-space: pre;&quot;&gt;&amp;nbsp;&amp;nbsp;&amp;nbsp;&amp;nbsp;&lt;/span&gt;&lt;/span&gt;&lt;span style=&quot;color:#ff8080;&quot;&gt;//80 ~ 89점은 B,&lt;/span&gt;&lt;/p&gt;&lt;p style=&quot;margin:0;&quot;&gt;&lt;span style=&quot;color:#d9e8f7;&quot;&gt;&lt;span style=&quot;white-space: pre;&quot;&gt;&amp;nbsp;&amp;nbsp;&amp;nbsp;&amp;nbsp;&lt;/span&gt;&lt;span style=&quot;white-space: pre;&quot;&gt;&amp;nbsp;&amp;nbsp;&amp;nbsp;&amp;nbsp;&lt;/span&gt;&lt;/span&gt;&lt;span style=&quot;color:#ff8080;&quot;&gt;//70 ~ 79점은 C,&lt;/span&gt;&lt;/p&gt;&lt;p style=&quot;margin:0;&quot;&gt;&lt;span style=&quot;color:#d9e8f7;&quot;&gt;&lt;span style=&quot;white-space: pre;&quot;&gt;&amp;nbsp;&amp;nbsp;&amp;nbsp;&amp;nbsp;&lt;/span&gt;&lt;span style=&quot;white-space: pre;&quot;&gt;&amp;nbsp;&amp;nbsp;&amp;nbsp;&amp;nbsp;&lt;/span&gt;&lt;/span&gt;&lt;span style=&quot;color:#ff8080;&quot;&gt;//60 ~ 69점은 D,&lt;/span&gt;&lt;/p&gt;&lt;p style=&quot;margin:0;&quot;&gt;&lt;span style=&quot;color:#d9e8f7;&quot;&gt;&lt;span style=&quot;white-space: pre;&quot;&gt;&amp;nbsp;&amp;nbsp;&amp;nbsp;&amp;nbsp;&lt;/span&gt;&lt;span style=&quot;white-space: pre;&quot;&gt;&amp;nbsp;&amp;nbsp;&amp;nbsp;&amp;nbsp;&lt;/span&gt;&lt;/span&gt;&lt;span style=&quot;color:#ff8080;&quot;&gt;//나머지 점수는 F를 출력하는 프로그램을 작성하시오.&lt;/span&gt;&lt;/p&gt;&lt;/div&gt;&lt;/div&gt;" style="text;whiteSpace=wrap;html=1;" vertex="1" parent="1">
          <mxGeometry x="5320" y="65" width="560" height="160" as="geometry" />
        </mxCell>
        <mxCell id="hsLVqGyKf4GTfWMnWfSy-503" value="회원가입" style="shape=umlFrame;whiteSpace=wrap;html=1;pointerEvents=0;width=100;height=30;" vertex="1" parent="1">
          <mxGeometry x="5290" y="250" width="660" height="1000" as="geometry" />
        </mxCell>
        <mxCell id="hsLVqGyKf4GTfWMnWfSy-514" value="" style="edgeStyle=orthogonalEdgeStyle;rounded=0;orthogonalLoop=1;jettySize=auto;html=1;" edge="1" parent="1" source="hsLVqGyKf4GTfWMnWfSy-504" target="hsLVqGyKf4GTfWMnWfSy-506">
          <mxGeometry relative="1" as="geometry" />
        </mxCell>
        <mxCell id="hsLVqGyKf4GTfWMnWfSy-504" value="시작" style="strokeWidth=2;html=1;shape=mxgraph.flowchart.terminator;whiteSpace=wrap;" vertex="1" parent="1">
          <mxGeometry x="5530" y="293" width="100" height="60" as="geometry" />
        </mxCell>
        <mxCell id="hsLVqGyKf4GTfWMnWfSy-505" value="끝" style="strokeWidth=2;html=1;shape=mxgraph.flowchart.terminator;whiteSpace=wrap;" vertex="1" parent="1">
          <mxGeometry x="5530" y="1131" width="100" height="60" as="geometry" />
        </mxCell>
        <mxCell id="hsLVqGyKf4GTfWMnWfSy-513" value="" style="edgeStyle=orthogonalEdgeStyle;rounded=0;orthogonalLoop=1;jettySize=auto;html=1;" edge="1" parent="1" source="hsLVqGyKf4GTfWMnWfSy-506" target="hsLVqGyKf4GTfWMnWfSy-507">
          <mxGeometry relative="1" as="geometry" />
        </mxCell>
        <mxCell id="hsLVqGyKf4GTfWMnWfSy-506" value="점수 입력" style="shape=parallelogram;perimeter=parallelogramPerimeter;whiteSpace=wrap;html=1;fixedSize=1;strokeWidth=2;" vertex="1" parent="1">
          <mxGeometry x="5520" y="409" width="120" height="60" as="geometry" />
        </mxCell>
        <mxCell id="hsLVqGyKf4GTfWMnWfSy-512" value="" style="edgeStyle=orthogonalEdgeStyle;rounded=0;orthogonalLoop=1;jettySize=auto;html=1;entryX=0;entryY=0.5;entryDx=0;entryDy=0;" edge="1" parent="1" source="hsLVqGyKf4GTfWMnWfSy-507" target="hsLVqGyKf4GTfWMnWfSy-535">
          <mxGeometry relative="1" as="geometry">
            <mxPoint x="5700" y="553" as="targetPoint" />
          </mxGeometry>
        </mxCell>
        <mxCell id="hsLVqGyKf4GTfWMnWfSy-542" style="edgeStyle=orthogonalEdgeStyle;rounded=0;orthogonalLoop=1;jettySize=auto;html=1;" edge="1" parent="1" source="hsLVqGyKf4GTfWMnWfSy-507" target="hsLVqGyKf4GTfWMnWfSy-516">
          <mxGeometry relative="1" as="geometry" />
        </mxCell>
        <mxCell id="hsLVqGyKf4GTfWMnWfSy-507" value="점수&amp;gt;89" style="rhombus;whiteSpace=wrap;html=1;strokeWidth=2;" vertex="1" parent="1">
          <mxGeometry x="5540.5" y="513" width="80" height="80" as="geometry" />
        </mxCell>
        <mxCell id="hsLVqGyKf4GTfWMnWfSy-508" value="NO" style="text;html=1;align=center;verticalAlign=middle;resizable=0;points=[];autosize=1;strokeColor=none;fillColor=none;fontSize=16;" vertex="1" parent="1">
          <mxGeometry x="5595" y="590" width="50" height="30" as="geometry" />
        </mxCell>
        <mxCell id="hsLVqGyKf4GTfWMnWfSy-509" value="YES" style="text;html=1;align=center;verticalAlign=middle;resizable=0;points=[];autosize=1;strokeColor=none;fillColor=none;fontSize=16;" vertex="1" parent="1">
          <mxGeometry x="5620" y="519" width="60" height="30" as="geometry" />
        </mxCell>
        <mxCell id="hsLVqGyKf4GTfWMnWfSy-515" value="" style="edgeStyle=orthogonalEdgeStyle;rounded=0;orthogonalLoop=1;jettySize=auto;html=1;entryX=0;entryY=0.5;entryDx=0;entryDy=0;" edge="1" source="hsLVqGyKf4GTfWMnWfSy-516" target="hsLVqGyKf4GTfWMnWfSy-537" parent="1">
          <mxGeometry relative="1" as="geometry">
            <mxPoint x="5700" y="690" as="targetPoint" />
          </mxGeometry>
        </mxCell>
        <mxCell id="hsLVqGyKf4GTfWMnWfSy-543" style="edgeStyle=orthogonalEdgeStyle;rounded=0;orthogonalLoop=1;jettySize=auto;html=1;entryX=0.5;entryY=0;entryDx=0;entryDy=0;" edge="1" parent="1" source="hsLVqGyKf4GTfWMnWfSy-516" target="hsLVqGyKf4GTfWMnWfSy-521">
          <mxGeometry relative="1" as="geometry" />
        </mxCell>
        <mxCell id="hsLVqGyKf4GTfWMnWfSy-516" value="점수&amp;gt;79" style="rhombus;whiteSpace=wrap;html=1;strokeWidth=2;" vertex="1" parent="1">
          <mxGeometry x="5540.5" y="650" width="80" height="80" as="geometry" />
        </mxCell>
        <mxCell id="hsLVqGyKf4GTfWMnWfSy-517" value="NO" style="text;html=1;align=center;verticalAlign=middle;resizable=0;points=[];autosize=1;strokeColor=none;fillColor=none;fontSize=16;" vertex="1" parent="1">
          <mxGeometry x="5590" y="735" width="50" height="30" as="geometry" />
        </mxCell>
        <mxCell id="hsLVqGyKf4GTfWMnWfSy-518" value="YES" style="text;html=1;align=center;verticalAlign=middle;resizable=0;points=[];autosize=1;strokeColor=none;fillColor=none;fontSize=16;" vertex="1" parent="1">
          <mxGeometry x="5620" y="656" width="60" height="30" as="geometry" />
        </mxCell>
        <mxCell id="hsLVqGyKf4GTfWMnWfSy-520" value="" style="edgeStyle=orthogonalEdgeStyle;rounded=0;orthogonalLoop=1;jettySize=auto;html=1;entryX=0;entryY=0.5;entryDx=0;entryDy=0;" edge="1" source="hsLVqGyKf4GTfWMnWfSy-521" target="hsLVqGyKf4GTfWMnWfSy-538" parent="1">
          <mxGeometry relative="1" as="geometry">
            <mxPoint x="5700" y="810" as="targetPoint" />
          </mxGeometry>
        </mxCell>
        <mxCell id="hsLVqGyKf4GTfWMnWfSy-545" style="edgeStyle=orthogonalEdgeStyle;rounded=0;orthogonalLoop=1;jettySize=auto;html=1;" edge="1" parent="1" source="hsLVqGyKf4GTfWMnWfSy-521" target="hsLVqGyKf4GTfWMnWfSy-526">
          <mxGeometry relative="1" as="geometry" />
        </mxCell>
        <mxCell id="hsLVqGyKf4GTfWMnWfSy-521" value="점수&amp;gt;69" style="rhombus;whiteSpace=wrap;html=1;strokeWidth=2;" vertex="1" parent="1">
          <mxGeometry x="5540.5" y="770" width="80" height="80" as="geometry" />
        </mxCell>
        <mxCell id="hsLVqGyKf4GTfWMnWfSy-522" value="NO" style="text;html=1;align=center;verticalAlign=middle;resizable=0;points=[];autosize=1;strokeColor=none;fillColor=none;fontSize=16;" vertex="1" parent="1">
          <mxGeometry x="5590" y="856" width="50" height="30" as="geometry" />
        </mxCell>
        <mxCell id="hsLVqGyKf4GTfWMnWfSy-523" value="YES" style="text;html=1;align=center;verticalAlign=middle;resizable=0;points=[];autosize=1;strokeColor=none;fillColor=none;fontSize=16;" vertex="1" parent="1">
          <mxGeometry x="5620" y="776" width="60" height="30" as="geometry" />
        </mxCell>
        <mxCell id="hsLVqGyKf4GTfWMnWfSy-525" value="" style="edgeStyle=orthogonalEdgeStyle;rounded=0;orthogonalLoop=1;jettySize=auto;html=1;entryX=0;entryY=0.5;entryDx=0;entryDy=0;" edge="1" source="hsLVqGyKf4GTfWMnWfSy-526" target="hsLVqGyKf4GTfWMnWfSy-539" parent="1">
          <mxGeometry relative="1" as="geometry">
            <mxPoint x="5700" y="930" as="targetPoint" />
          </mxGeometry>
        </mxCell>
        <mxCell id="hsLVqGyKf4GTfWMnWfSy-546" style="edgeStyle=orthogonalEdgeStyle;rounded=0;orthogonalLoop=1;jettySize=auto;html=1;entryX=0.5;entryY=0;entryDx=0;entryDy=0;" edge="1" parent="1" source="hsLVqGyKf4GTfWMnWfSy-526" target="hsLVqGyKf4GTfWMnWfSy-540">
          <mxGeometry relative="1" as="geometry" />
        </mxCell>
        <mxCell id="hsLVqGyKf4GTfWMnWfSy-526" value="점수&amp;gt;59" style="rhombus;whiteSpace=wrap;html=1;strokeWidth=2;" vertex="1" parent="1">
          <mxGeometry x="5540.5" y="890" width="80" height="80" as="geometry" />
        </mxCell>
        <mxCell id="hsLVqGyKf4GTfWMnWfSy-527" value="NO" style="text;html=1;align=center;verticalAlign=middle;resizable=0;points=[];autosize=1;strokeColor=none;fillColor=none;fontSize=16;" vertex="1" parent="1">
          <mxGeometry x="5590" y="970" width="50" height="30" as="geometry" />
        </mxCell>
        <mxCell id="hsLVqGyKf4GTfWMnWfSy-528" value="YES" style="text;html=1;align=center;verticalAlign=middle;resizable=0;points=[];autosize=1;strokeColor=none;fillColor=none;fontSize=16;" vertex="1" parent="1">
          <mxGeometry x="5620" y="896" width="60" height="30" as="geometry" />
        </mxCell>
        <mxCell id="hsLVqGyKf4GTfWMnWfSy-535" value="A" style="shape=parallelogram;perimeter=parallelogramPerimeter;whiteSpace=wrap;html=1;fixedSize=1;strokeWidth=2;" vertex="1" parent="1">
          <mxGeometry x="5700" y="523" width="120" height="60" as="geometry" />
        </mxCell>
        <mxCell id="hsLVqGyKf4GTfWMnWfSy-537" value="B" style="shape=parallelogram;perimeter=parallelogramPerimeter;whiteSpace=wrap;html=1;fixedSize=1;strokeWidth=2;" vertex="1" parent="1">
          <mxGeometry x="5700" y="660" width="120" height="60" as="geometry" />
        </mxCell>
        <mxCell id="hsLVqGyKf4GTfWMnWfSy-538" value="C" style="shape=parallelogram;perimeter=parallelogramPerimeter;whiteSpace=wrap;html=1;fixedSize=1;strokeWidth=2;" vertex="1" parent="1">
          <mxGeometry x="5700" y="780" width="120" height="60" as="geometry" />
        </mxCell>
        <mxCell id="hsLVqGyKf4GTfWMnWfSy-539" value="D" style="shape=parallelogram;perimeter=parallelogramPerimeter;whiteSpace=wrap;html=1;fixedSize=1;strokeWidth=2;" vertex="1" parent="1">
          <mxGeometry x="5700" y="900" width="120" height="60" as="geometry" />
        </mxCell>
        <mxCell id="hsLVqGyKf4GTfWMnWfSy-541" value="" style="edgeStyle=orthogonalEdgeStyle;rounded=0;orthogonalLoop=1;jettySize=auto;html=1;" edge="1" parent="1" source="hsLVqGyKf4GTfWMnWfSy-540" target="hsLVqGyKf4GTfWMnWfSy-505">
          <mxGeometry relative="1" as="geometry" />
        </mxCell>
        <mxCell id="hsLVqGyKf4GTfWMnWfSy-540" value="F" style="shape=parallelogram;perimeter=parallelogramPerimeter;whiteSpace=wrap;html=1;fixedSize=1;strokeWidth=2;" vertex="1" parent="1">
          <mxGeometry x="5520" y="1020" width="120" height="60" as="geometry" />
        </mxCell>
        <mxCell id="hsLVqGyKf4GTfWMnWfSy-548" value="회원가입" style="shape=umlFrame;whiteSpace=wrap;html=1;pointerEvents=0;width=100;height=30;" vertex="1" parent="1">
          <mxGeometry x="6000" y="250" width="660" height="860" as="geometry" />
        </mxCell>
        <mxCell id="hsLVqGyKf4GTfWMnWfSy-549" value="" style="edgeStyle=orthogonalEdgeStyle;rounded=0;orthogonalLoop=1;jettySize=auto;html=1;" edge="1" source="hsLVqGyKf4GTfWMnWfSy-550" target="hsLVqGyKf4GTfWMnWfSy-553" parent="1">
          <mxGeometry relative="1" as="geometry" />
        </mxCell>
        <mxCell id="hsLVqGyKf4GTfWMnWfSy-550" value="시작" style="strokeWidth=2;html=1;shape=mxgraph.flowchart.terminator;whiteSpace=wrap;" vertex="1" parent="1">
          <mxGeometry x="6240" y="293" width="100" height="60" as="geometry" />
        </mxCell>
        <mxCell id="hsLVqGyKf4GTfWMnWfSy-551" value="끝" style="strokeWidth=2;html=1;shape=mxgraph.flowchart.terminator;whiteSpace=wrap;" vertex="1" parent="1">
          <mxGeometry x="6240" y="1031" width="100" height="60" as="geometry" />
        </mxCell>
        <mxCell id="hsLVqGyKf4GTfWMnWfSy-552" value="" style="edgeStyle=orthogonalEdgeStyle;rounded=0;orthogonalLoop=1;jettySize=auto;html=1;" edge="1" source="hsLVqGyKf4GTfWMnWfSy-553" target="hsLVqGyKf4GTfWMnWfSy-556" parent="1">
          <mxGeometry relative="1" as="geometry" />
        </mxCell>
        <mxCell id="hsLVqGyKf4GTfWMnWfSy-553" value="나이 입력" style="shape=parallelogram;perimeter=parallelogramPerimeter;whiteSpace=wrap;html=1;fixedSize=1;strokeWidth=2;" vertex="1" parent="1">
          <mxGeometry x="6230" y="409" width="120" height="60" as="geometry" />
        </mxCell>
        <mxCell id="hsLVqGyKf4GTfWMnWfSy-554" value="" style="edgeStyle=orthogonalEdgeStyle;rounded=0;orthogonalLoop=1;jettySize=auto;html=1;entryX=0;entryY=0.5;entryDx=0;entryDy=0;" edge="1" source="hsLVqGyKf4GTfWMnWfSy-556" target="hsLVqGyKf4GTfWMnWfSy-574" parent="1">
          <mxGeometry relative="1" as="geometry">
            <mxPoint x="6410" y="553" as="targetPoint" />
          </mxGeometry>
        </mxCell>
        <mxCell id="hsLVqGyKf4GTfWMnWfSy-555" style="edgeStyle=orthogonalEdgeStyle;rounded=0;orthogonalLoop=1;jettySize=auto;html=1;" edge="1" source="hsLVqGyKf4GTfWMnWfSy-556" target="hsLVqGyKf4GTfWMnWfSy-561" parent="1">
          <mxGeometry relative="1" as="geometry" />
        </mxCell>
        <mxCell id="hsLVqGyKf4GTfWMnWfSy-556" value="나이&amp;lt;8" style="rhombus;whiteSpace=wrap;html=1;strokeWidth=2;" vertex="1" parent="1">
          <mxGeometry x="6250.5" y="513" width="80" height="80" as="geometry" />
        </mxCell>
        <mxCell id="hsLVqGyKf4GTfWMnWfSy-557" value="NO" style="text;html=1;align=center;verticalAlign=middle;resizable=0;points=[];autosize=1;strokeColor=none;fillColor=none;fontSize=16;" vertex="1" parent="1">
          <mxGeometry x="6305" y="590" width="50" height="30" as="geometry" />
        </mxCell>
        <mxCell id="hsLVqGyKf4GTfWMnWfSy-558" value="YES" style="text;html=1;align=center;verticalAlign=middle;resizable=0;points=[];autosize=1;strokeColor=none;fillColor=none;fontSize=16;" vertex="1" parent="1">
          <mxGeometry x="6330" y="519" width="60" height="30" as="geometry" />
        </mxCell>
        <mxCell id="hsLVqGyKf4GTfWMnWfSy-559" value="" style="edgeStyle=orthogonalEdgeStyle;rounded=0;orthogonalLoop=1;jettySize=auto;html=1;entryX=0;entryY=0.5;entryDx=0;entryDy=0;" edge="1" source="hsLVqGyKf4GTfWMnWfSy-561" target="hsLVqGyKf4GTfWMnWfSy-575" parent="1">
          <mxGeometry relative="1" as="geometry">
            <mxPoint x="6410" y="690" as="targetPoint" />
          </mxGeometry>
        </mxCell>
        <mxCell id="hsLVqGyKf4GTfWMnWfSy-560" style="edgeStyle=orthogonalEdgeStyle;rounded=0;orthogonalLoop=1;jettySize=auto;html=1;entryX=0.5;entryY=0;entryDx=0;entryDy=0;" edge="1" source="hsLVqGyKf4GTfWMnWfSy-561" target="hsLVqGyKf4GTfWMnWfSy-566" parent="1">
          <mxGeometry relative="1" as="geometry" />
        </mxCell>
        <mxCell id="hsLVqGyKf4GTfWMnWfSy-561" value="나이&amp;lt;14" style="rhombus;whiteSpace=wrap;html=1;strokeWidth=2;" vertex="1" parent="1">
          <mxGeometry x="6250.5" y="650" width="80" height="80" as="geometry" />
        </mxCell>
        <mxCell id="hsLVqGyKf4GTfWMnWfSy-562" value="NO" style="text;html=1;align=center;verticalAlign=middle;resizable=0;points=[];autosize=1;strokeColor=none;fillColor=none;fontSize=16;" vertex="1" parent="1">
          <mxGeometry x="6300" y="735" width="50" height="30" as="geometry" />
        </mxCell>
        <mxCell id="hsLVqGyKf4GTfWMnWfSy-563" value="YES" style="text;html=1;align=center;verticalAlign=middle;resizable=0;points=[];autosize=1;strokeColor=none;fillColor=none;fontSize=16;" vertex="1" parent="1">
          <mxGeometry x="6330" y="656" width="60" height="30" as="geometry" />
        </mxCell>
        <mxCell id="hsLVqGyKf4GTfWMnWfSy-564" value="" style="edgeStyle=orthogonalEdgeStyle;rounded=0;orthogonalLoop=1;jettySize=auto;html=1;entryX=0;entryY=0.5;entryDx=0;entryDy=0;" edge="1" source="hsLVqGyKf4GTfWMnWfSy-566" target="hsLVqGyKf4GTfWMnWfSy-576" parent="1">
          <mxGeometry relative="1" as="geometry">
            <mxPoint x="6410" y="810" as="targetPoint" />
          </mxGeometry>
        </mxCell>
        <mxCell id="hsLVqGyKf4GTfWMnWfSy-565" style="edgeStyle=orthogonalEdgeStyle;rounded=0;orthogonalLoop=1;jettySize=auto;html=1;entryX=0.5;entryY=0;entryDx=0;entryDy=0;" edge="1" source="hsLVqGyKf4GTfWMnWfSy-566" target="hsLVqGyKf4GTfWMnWfSy-579" parent="1">
          <mxGeometry relative="1" as="geometry">
            <mxPoint x="6290.5" y="890" as="targetPoint" />
          </mxGeometry>
        </mxCell>
        <mxCell id="hsLVqGyKf4GTfWMnWfSy-566" value="나이&amp;lt;20" style="rhombus;whiteSpace=wrap;html=1;strokeWidth=2;" vertex="1" parent="1">
          <mxGeometry x="6250.5" y="770" width="80" height="80" as="geometry" />
        </mxCell>
        <mxCell id="hsLVqGyKf4GTfWMnWfSy-567" value="NO" style="text;html=1;align=center;verticalAlign=middle;resizable=0;points=[];autosize=1;strokeColor=none;fillColor=none;fontSize=16;" vertex="1" parent="1">
          <mxGeometry x="6300" y="856" width="50" height="30" as="geometry" />
        </mxCell>
        <mxCell id="hsLVqGyKf4GTfWMnWfSy-568" value="YES" style="text;html=1;align=center;verticalAlign=middle;resizable=0;points=[];autosize=1;strokeColor=none;fillColor=none;fontSize=16;" vertex="1" parent="1">
          <mxGeometry x="6330" y="776" width="60" height="30" as="geometry" />
        </mxCell>
        <mxCell id="hsLVqGyKf4GTfWMnWfSy-574" value="8세 미만 요금&lt;div&gt;&amp;nbsp;: 1000원&lt;/div&gt;" style="shape=parallelogram;perimeter=parallelogramPerimeter;whiteSpace=wrap;html=1;fixedSize=1;strokeWidth=2;" vertex="1" parent="1">
          <mxGeometry x="6410" y="523" width="120" height="60" as="geometry" />
        </mxCell>
        <mxCell id="hsLVqGyKf4GTfWMnWfSy-575" value="14세 미만 요금&lt;div&gt;&amp;nbsp;: 2000원&lt;/div&gt;" style="shape=parallelogram;perimeter=parallelogramPerimeter;whiteSpace=wrap;html=1;fixedSize=1;strokeWidth=2;" vertex="1" parent="1">
          <mxGeometry x="6410" y="660" width="120" height="60" as="geometry" />
        </mxCell>
        <mxCell id="hsLVqGyKf4GTfWMnWfSy-576" value="20세 미만 요금&lt;div&gt;&amp;nbsp;: 2500원&lt;/div&gt;" style="shape=parallelogram;perimeter=parallelogramPerimeter;whiteSpace=wrap;html=1;fixedSize=1;strokeWidth=2;" vertex="1" parent="1">
          <mxGeometry x="6410" y="780" width="120" height="60" as="geometry" />
        </mxCell>
        <mxCell id="hsLVqGyKf4GTfWMnWfSy-578" value="" style="edgeStyle=orthogonalEdgeStyle;rounded=0;orthogonalLoop=1;jettySize=auto;html=1;" edge="1" source="hsLVqGyKf4GTfWMnWfSy-579" target="hsLVqGyKf4GTfWMnWfSy-551" parent="1">
          <mxGeometry relative="1" as="geometry" />
        </mxCell>
        <mxCell id="hsLVqGyKf4GTfWMnWfSy-579" value="20세 이상 요금&lt;div&gt;&amp;nbsp;: 3000원&lt;/div&gt;" style="shape=parallelogram;perimeter=parallelogramPerimeter;whiteSpace=wrap;html=1;fixedSize=1;strokeWidth=2;" vertex="1" parent="1">
          <mxGeometry x="6230" y="920" width="120" height="60" as="geometry" />
        </mxCell>
        <mxCell id="hsLVqGyKf4GTfWMnWfSy-580" value="&lt;div style=&quot;background-color:#2f2f2f;padding:0px 0px 0px 2px;&quot;&gt;&lt;div style=&quot;color:#cccccc;background-color:#2f2f2f;font-family:&amp;quot;Consolas&amp;quot;;font-size:14pt;white-space:pre;&quot;&gt;&lt;p style=&quot;margin:0;&quot;&gt;&lt;span style=&quot;color:#d9e8f7;&quot;&gt;&lt;span style=&quot;white-space: pre;&quot;&gt;&amp;nbsp;&amp;nbsp;&amp;nbsp;&amp;nbsp;&lt;/span&gt;&lt;span style=&quot;white-space: pre;&quot;&gt;&amp;nbsp;&amp;nbsp;&amp;nbsp;&amp;nbsp;&lt;/span&gt;&lt;/span&gt;&lt;span style=&quot;color:#ff8080;&quot;&gt;//나이별로 요금을 부과하는 else &lt;/span&gt;&lt;span style=&quot;color:#ff8080;text-decoration:underline;text-decoration-color:#fdaad3;text-decoration-style:wavy;&quot;&gt;if문을&lt;/span&gt;&lt;span style=&quot;color:#ff8080;&quot;&gt; 만드세요.&lt;/span&gt;&lt;/p&gt;&lt;p style=&quot;margin:0;&quot;&gt;&lt;span style=&quot;color:#d9e8f7;&quot;&gt;&lt;span style=&quot;white-space: pre;&quot;&gt;&amp;nbsp;&amp;nbsp;&amp;nbsp;&amp;nbsp;&lt;/span&gt;&lt;span style=&quot;white-space: pre;&quot;&gt;&amp;nbsp;&amp;nbsp;&amp;nbsp;&amp;nbsp;&lt;/span&gt;&lt;/span&gt;&lt;span style=&quot;color:#ff8080;&quot;&gt;//8세 미만 : 요금은 1000원&lt;/span&gt;&lt;/p&gt;&lt;p style=&quot;margin:0;&quot;&gt;&lt;span style=&quot;color:#d9e8f7;&quot;&gt;&lt;span style=&quot;white-space: pre;&quot;&gt;&amp;nbsp;&amp;nbsp;&amp;nbsp;&amp;nbsp;&lt;/span&gt;&lt;span style=&quot;white-space: pre;&quot;&gt;&amp;nbsp;&amp;nbsp;&amp;nbsp;&amp;nbsp;&lt;/span&gt;&lt;/span&gt;&lt;span style=&quot;color:#ff8080;&quot;&gt;//14세미만 : 요금은 2000원&lt;/span&gt;&lt;/p&gt;&lt;p style=&quot;margin:0;&quot;&gt;&lt;span style=&quot;color:#d9e8f7;&quot;&gt;&lt;span style=&quot;white-space: pre;&quot;&gt;&amp;nbsp;&amp;nbsp;&amp;nbsp;&amp;nbsp;&lt;/span&gt;&lt;span style=&quot;white-space: pre;&quot;&gt;&amp;nbsp;&amp;nbsp;&amp;nbsp;&amp;nbsp;&lt;/span&gt;&lt;/span&gt;&lt;span style=&quot;color:#ff8080;&quot;&gt;//20세미만 : 요금은 2500원&lt;/span&gt;&lt;/p&gt;&lt;p style=&quot;margin:0;&quot;&gt;&lt;span style=&quot;color:#d9e8f7;&quot;&gt;&lt;span style=&quot;white-space: pre;&quot;&gt;&amp;nbsp;&amp;nbsp;&amp;nbsp;&amp;nbsp;&lt;/span&gt;&lt;span style=&quot;white-space: pre;&quot;&gt;&amp;nbsp;&amp;nbsp;&amp;nbsp;&amp;nbsp;&lt;/span&gt;&lt;/span&gt;&lt;span style=&quot;color:#ff8080;&quot;&gt;//20세이상 : 요금은 3000원&lt;/span&gt;&lt;/p&gt;&lt;/div&gt;&lt;/div&gt;" style="text;whiteSpace=wrap;html=1;" vertex="1" parent="1">
          <mxGeometry x="6045" y="98" width="560" height="140" as="geometry" />
        </mxCell>
      </root>
    </mxGraphModel>
  </diagram>
</mxfile>
